ISO-10303-21;
HEADER;
FILE_DESCRIPTION(('ViewDefinition [DesignTransferView_V1.0]','RevitIdentifiers [ContentGUID: fb5dd41d-2734-46c0-8d5b-0cedab4554cd, VersionGUID: c2ef9d05-282c-4623-ac29-d748d081fe90, NumberOfSaves: 1]','CoordinateReference [CoordinateBase: Shared Coordinates]'),'2;1');
FILE_NAME('conduit_dtv.ifc','2026-06-24T11:05:39-08:00',(''),(''),'ODA SDAI 25.12','Autodesk - Revit 27.1.0.45 (ENU) - 27.1.0.45','');
FILE_SCHEMA(('IFC4X3_ADD2'));
ENDSEC;

DATA;
#1=IFCORGANIZATION($,'Autodesk Revit 2027 (ENU)',$,$,$);
#2=IFCAPPLICATION(#1,'2027','Autodesk Revit 2027 (ENU)','Revit');
#3=IFCPERSON($,'','pkhuat28',$,$,$,$,$);
#4=IFCORGANIZATION($,'','',$,$);
#5=IFCPERSONANDORGANIZATION(#3,#4,$);
#6=IFCOWNERHISTORY(#5,#2,$,.NOCHANGE.,$,$,$,1782323466);
#7=IFCSIUNIT(*,.LENGTHUNIT.,$,.METRE.);
#8=IFCDIMENSIONALEXPONENTS(1,0,0,0,0,0,0);
#9=IFCMEASUREWITHUNIT(IFCLENGTHMEASURE(0.30480000000000002),#7);
#10=IFCCONVERSIONBASEDUNIT(#8,.LENGTHUNIT.,'FOOT',#9);
#11=IFCSIUNIT(*,.AREAUNIT.,$,.SQUARE_METRE.);
#12=IFCDIMENSIONALEXPONENTS(2,0,0,0,0,0,0);
#13=IFCMEASUREWITHUNIT(IFCAREAMEASURE(0.092903040000000006),#11);
#14=IFCCONVERSIONBASEDUNIT(#12,.AREAUNIT.,'SQUARE FOOT',#13);
#15=IFCSIUNIT(*,.VOLUMEUNIT.,$,.CUBIC_METRE.);
#16=IFCDIMENSIONALEXPONENTS(3,0,0,0,0,0,0);
#17=IFCMEASUREWITHUNIT(IFCVOLUMEMEASURE(0.028316846592000004),#15);
#18=IFCCONVERSIONBASEDUNIT(#16,.VOLUMEUNIT.,'CUBIC FOOT',#17);
#19=IFCCARTESIANPOINT((0.,0.,0.));
#20=IFCAXIS2PLACEMENT3D(#19,$,$);
#21=IFCDIRECTION((0.,1.));
#22=IFCGEOMETRICREPRESENTATIONCONTEXT($,'Model',3,0.0001,#20,#21);
#23=IFCGEOMETRICREPRESENTATIONSUBCONTEXT('Axis','Model',*,*,*,*,#22,$,.GRAPH_VIEW.,$);
#24=IFCGEOMETRICREPRESENTATIONSUBCONTEXT('Body','Model',*,*,*,*,#22,$,.MODEL_VIEW.,$);
#25=IFCGEOMETRICREPRESENTATIONSUBCONTEXT('Box','Model',*,*,*,*,#22,$,.MODEL_VIEW.,$);
#26=IFCGEOMETRICREPRESENTATIONSUBCONTEXT('FootPrint','Model',*,*,*,*,#22,$,.MODEL_VIEW.,$);
#27=IFCPROJECT('3xNTGT9pH6m8rR3ErKkgiz',#6,'Project Number',$,$,'Project Name','Project Status',(#22),#392);
#28=IFCAXIS2PLACEMENT3D(#19,$,$);
#29=IFCLOCALPLACEMENT(#39,#28);
#30=IFCBUILDING('3xNTGT9pH6m8rR3ErKkgiy',#6,'',$,$,#29,$,'',.ELEMENT.,$,$,$);
#31=IFCAXIS2PLACEMENT3D(#19,$,$);
#32=IFCLOCALPLACEMENT(#29,#31);
#33=IFCBUILDINGSTOREY('2JF4e6axWHqu3u0C1FZlmi',#6,'Level 1',$,$,#32,$,'Level 1',.ELEMENT.,0.);
#34=IFCCARTESIANPOINT((0.,0.,10.));
#35=IFCAXIS2PLACEMENT3D(#34,$,$);
#36=IFCLOCALPLACEMENT(#29,#35);
#37=IFCBUILDINGSTOREY('1ZGO8hrFCHqw0v0026FpFv',#6,'Level 2',$,$,#36,$,'Level 2',.ELEMENT.,9.999999999998435);
#38=IFCAXIS2PLACEMENT3D(#19,$,$);
#39=IFCLOCALPLACEMENT($,#38);
#40=IFCSITE('3xNTGT9pH6m8rR3ErKkgi$',#6,'Default',$,$,#39,$,$,.ELEMENT.,(42,21,32,376708),(-71,-3,-31,-74829),0.,$,$);
#41=IFCPROPERTYSINGLEVALUE('Reference',$,IFCIDENTIFIER('Project Information'),$);
#42=IFCPROPERTYSET('2widuZgxndbdpzuurXDCOV',#6,'Pset_SiteCommon',$,(#41));
#43=IFCPROPERTYSINGLEVALUE('IsExternal',$,IFCBOOLEAN(.F.),$);
#44=IFCPROPERTYSET('2Ml2QwgnJjCE3yFIdwr35t',#6,'Pset_SpaceCommon',$,(#41,#43));
#45=IFCRELDEFINESBYPROPERTIES('2UYIcHgUZRQLKsYSCuyCuz',#6,$,$,(#40),#42);
#46=IFCRELDEFINESBYPROPERTIES('0iseUXWKdmCuHO19Q$Ljz8',#6,$,$,(#40),#44);
#47=IFCAXIS2PLACEMENT3D(#64,$,$);
#48=IFCLOCALPLACEMENT(#32,#47);
#49=IFCCARTESIANPOINT((0.,0.));
#50=IFCDIRECTION((1.,0.));
#51=IFCAXIS2PLACEMENT2D(#49,#50);
#52=IFCCIRCLEPROFILEDEF(.AREA.,'Rigid Nonmetallic Conduit (RNC Sch 40)',#51,0.098958333333333343);
#53=IFCCARTESIANPOINT((0.,0.10419216612867022,-0.1041921661283336));
#54=IFCDIRECTION((1.,0.,0.));
#55=IFCDIRECTION((0.,-1.,0.));
#56=IFCAXIS2PLACEMENT3D(#53,#54,#55);
#57=IFCDIRECTION((0.,0.,1.));
#58=IFCEXTRUDEDAREASOLID(#52,#56,#57,94.942708333333371);
#59=IFCSIUNIT(*,.PLANEANGLEUNIT.,$,.RADIAN.);
#60=IFCDIMENSIONALEXPONENTS(0,0,0,0,0,0,0);
#61=IFCMEASUREWITHUNIT(IFCPLANEANGLEMEASURE(0.017453292519943278),#59);
#62=IFCCONVERSIONBASEDUNIT(#60,.PLANEANGLEUNIT.,'DEGREE',#61);
#63=IFCSHAPEREPRESENTATION(#24,'Body','SweptSolid',(#58));
#64=IFCCARTESIANPOINT((-69.573682199372101,5.8844662037247835,9.1041921661283336));
#65=IFCPRODUCTDEFINITIONSHAPE($,$,(#63));
#66=IFCCABLECARRIERSEGMENTTYPE('2JVYEFXE9CV8Fkdb4IKM7t',#6,'Conduit without Fittings:Rigid Nonmetallic Conduit (RNC Sch 40)',$,$,$,$,'505167',$,.CONDUITSEGMENT.);
#67=IFCCABLECARRIERSEGMENT('32xvq5A2n68wmfrqZGZFST',#6,'Conduit without Fittings:Rigid Nonmetallic Conduit (RNC Sch 40):854413',$,$,#48,#65,'854413',.CONDUITSEGMENT.);
#68=IFCPROPERTYSINGLEVALUE('Reference',$,IFCIDENTIFIER('Rigid Nonmetallic Conduit (RNC Sch 40)'),$);
#69=IFCPROPERTYSET('3NDHpllZZTq7ZIfsSutllr',#6,'Pset_CableCarrierSegmentTypeCommon',$,(#68));
#70=IFCPROPERTYSET('3ZcMcEucEeGHVdXJs2St99',#6,'Pset_EnvironmentalImpactIndicators',$,(#68));
#71=IFCRELDEFINESBYPROPERTIES('3E5QcQ1gSNs1WK3ooHOcQz',#6,$,$,(#67),#69);
#72=IFCRELDEFINESBYPROPERTIES('2UqhWo7To$l7uniydEAIOm',#6,$,$,(#67),#70);
#73=IFCQUANTITYAREA('GrossSurfaceArea','',$,59.094384852061317,$);
#74=IFCQUANTITYAREA('NetSurfaceArea','',$,59.094384852061317,$);
#75=IFCQUANTITYVOLUME('GrossVolume','',$,2.9204577706413835,$);
#76=IFCQUANTITYVOLUME('NetVolume','',$,2.9207505488238623,$);
#77=IFCELEMENTQUANTITY('0v9RCYDoGlCUPnMGTtju1s',#6,'Qto_BodyGeometryValidation',$,'BaseQuantities',(#73,#74,#75,#76));
#78=IFCRELDEFINESBYPROPERTIES('3SOj6KdiQgUibXiyaDyV5l',#6,$,$,(#67),#77);
#79=IFCQUANTITYLENGTH('Length','',$,94.942708333333371,$);
#80=IFCQUANTITYAREA('CrossSectionArea','',$,0.03076021130962452,$);
#81=IFCQUANTITYAREA('OuterSurfaceArea','',$,59.032864429442071,$);
#82=IFCELEMENTQUANTITY('0ensB5c8QZfe4wrz7E06Li',#6,'Qto_CableCarrierSegmentBaseQuantities',$,'BaseQuantities',(#79,#80,#81));
#83=IFCRELDEFINESBYPROPERTIES('0wDnwq4tXkm$e8K6xB3Zv_',#6,$,$,(#67),#82);
#84=IFCAXIS2PLACEMENT3D(#94,$,$);
#85=IFCLOCALPLACEMENT(#32,#84);
#86=IFCCARTESIANPOINT((0.,0.));
#87=IFCAXIS2PLACEMENT2D(#86,#50);
#88=IFCCIRCLEPROFILEDEF(.AREA.,'Rigid Nonmetallic Conduit (RNC Sch 40)',#87,0.098958333333333343);
#89=IFCCARTESIANPOINT((0.10419216612845261,0.,0.1041921661283336));
#90=IFCDIRECTION((0.,1.,0.));
#91=IFCAXIS2PLACEMENT3D(#89,#90,#54);
#92=IFCEXTRUDEDAREASOLID(#88,#91,#57,33.885416666666686);
#93=IFCSHAPEREPRESENTATION(#24,'Body','SweptSolid',(#92));
#94=IFCCARTESIANPOINT((26.322125634499479,7.0459500365197982,8.8958078338716611));
#95=IFCPRODUCTDEFINITIONSHAPE($,$,(#93));
#96=IFCCABLECARRIERSEGMENT('32xvq5A2n68wmfrqZGZFS8',#6,'Conduit without Fittings:Rigid Nonmetallic Conduit (RNC Sch 40):854424',$,$,#85,#95,'854424',.CONDUITSEGMENT.);
#97=IFCPROPERTYSET('23moLqGS9hIjST3odx2Ejd',#6,'Pset_CableCarrierSegmentTypeCommon',$,(#68));
#98=IFCPROPERTYSET('0RRRyaHkezRUy8MJqRp5uG',#6,'Pset_EnvironmentalImpactIndicators',$,(#68));
#99=IFCRELDEFINESBYPROPERTIES('01B3FiewOYJvKAQGCpLW0g',#6,$,$,(#96),#97);
#100=IFCRELDEFINESBYPROPERTIES('0f3ycuyPTnI1ILCo5bZ55D',#6,$,$,(#96),#98);
#101=IFCQUANTITYAREA('GrossSurfaceArea','',$,21.130576101918759,$);
#102=IFCQUANTITYAREA('NetSurfaceArea','',$,21.130576101918763,$);
#103=IFCQUANTITYVOLUME('GrossVolume','',$,1.0423225769813549,$);
#104=IFCQUANTITYVOLUME('NetVolume','',$,1.042427070637344,$);
#105=IFCELEMENTQUANTITY('3SpPQwjZbpqHusscAzekxb',#6,'Qto_BodyGeometryValidation',$,'BaseQuantities',(#101,#102,#103,#104));
#106=IFCRELDEFINESBYPROPERTIES('2MjtNKuXWPCdC7VjKgdW9i',#6,$,$,(#96),#105);
#107=IFCQUANTITYLENGTH('Length','',$,33.885416666666686,$);
#108=IFCQUANTITYAREA('CrossSectionArea','',$,0.030760211309624967,$);
#109=IFCQUANTITYAREA('OuterSurfaceArea','',$,21.06905567929951,$);
#110=IFCELEMENTQUANTITY('13RwSkkJlBMweYZ$WejUdi',#6,'Qto_CableCarrierSegmentBaseQuantities',$,'BaseQuantities',(#107,#108,#109));
#111=IFCRELDEFINESBYPROPERTIES('2$mXmcHqZngHDmsWysgBtz',#6,$,$,(#96),#110);
#112=IFCAXIS2PLACEMENT3D(#121,$,$);
#113=IFCLOCALPLACEMENT(#32,#112);
#114=IFCCARTESIANPOINT((0.,0.));
#115=IFCAXIS2PLACEMENT2D(#114,#50);
#116=IFCCIRCLEPROFILEDEF(.AREA.,'Rigid Nonmetallic Conduit (RNC Sch 40)',#115,0.098958333333333343);
#117=IFCCARTESIANPOINT((0.,0.10419216612833537,0.1041921661283336));
#118=IFCAXIS2PLACEMENT3D(#117,#54,#55);
#119=IFCEXTRUDEDAREASOLID(#116,#118,#57,54.942708333333357);
#120=IFCSHAPEREPRESENTATION(#24,'Body','SweptSolid',(#119));
#121=IFCCARTESIANPOINT((27.483609467294471,41.884466203724834,8.8958078338716593));
#122=IFCPRODUCTDEFINITIONSHAPE($,$,(#120));
#123=IFCCABLECARRIERSEGMENT('32xvq5A2n68wmfrqZGZFSF',#6,'Conduit without Fittings:Rigid Nonmetallic Conduit (RNC Sch 40):854431',$,$,#113,#122,'854431',.CONDUITSEGMENT.);
#124=IFCPROPERTYSET('0RIR5JzKOKTwUJBzkmqcAP',#6,'Pset_CableCarrierSegmentTypeCommon',$,(#68));
#125=IFCPROPERTYSET('0eBgPaTMa62aQQC1jxy2Zb',#6,'Pset_EnvironmentalImpactIndicators',$,(#68));
#126=IFCRELDEFINESBYPROPERTIES('0uNoW858037BPavvsIrXf5',#6,$,$,(#123),#124);
#127=IFCRELDEFINESBYPROPERTIES('0aPxsPHsI1GzQO99F2j4dJ',#6,$,$,(#123),#125);
#128=IFCQUANTITYAREA('GrossSurfaceArea','',$,34.223443011142223,$);
#129=IFCQUANTITYAREA('NetSurfaceArea','',$,34.223443011142223,$);
#130=IFCQUANTITYVOLUME('GrossVolume','',$,1.6900493182563709,$);
#131=IFCQUANTITYVOLUME('NetVolume','',$,1.6902187470263172,$);
#132=IFCELEMENTQUANTITY('358e4HwVhpsXmo863kMT8s',#6,'Qto_BodyGeometryValidation',$,'BaseQuantities',(#128,#129,#130,#131));
#133=IFCRELDEFINESBYPROPERTIES('2j3X8Cjp$UnNuLQLiAAodz',#6,$,$,(#123),#132);
#134=IFCQUANTITYLENGTH('Length','',$,54.942708333333357,$);
#135=IFCQUANTITYAREA('CrossSectionArea','',$,0.030760211309623954,$);
#136=IFCQUANTITYAREA('OuterSurfaceArea','',$,34.161922588522977,$);
#137=IFCELEMENTQUANTITY('326$1B76vxpFNr7jnw2vC3',#6,'Qto_CableCarrierSegmentBaseQuantities',$,'BaseQuantities',(#134,#135,#136));
#138=IFCRELDEFINESBYPROPERTIES('2tctjpi8ewNwfvbSuOOXGy',#6,$,$,(#123),#137);
#139=IFCCARTESIANPOINT((-1.0572916666666272,-0.098958333333360987,-0.));
#140=IFCVERTEXPOINT(#139);
#141=IFCCARTESIANPOINT((-1.0572916666666463,0.098958333333305698,-0.));
#142=IFCVERTEXPOINT(#141);
#143=IFCCARTESIANPOINT((-1.0572916666666368,-0.,-0.));
#144=IFCDIRECTION((-1.,0.,0.));
#145=IFCAXIS2PLACEMENT3D(#143,#144,#90);
#146=IFCCIRCLE(#145,0.098958333333333343);
#147=IFCEDGECURVE(#140,#142,#146,.T.);
#148=IFCAXIS2PLACEMENT3D(#143,#144,#90);
#149=IFCCIRCLE(#148,0.098958333333333343);
#150=IFCEDGECURVE(#142,#140,#149,.T.);
#151=IFCCARTESIANPOINT((-0.89062499999984523,-0.098958333333344778,-0.));
#152=IFCVERTEXPOINT(#151);
#153=IFCVECTOR(#54,1.);
#154=IFCLINE(#139,#153);
#155=IFCEDGECURVE(#140,#152,#154,.T.);
#156=IFCCARTESIANPOINT((-0.89062499999986755,0.098958333333321907,-0.));
#157=IFCVERTEXPOINT(#156);
#158=IFCCARTESIANPOINT((-0.89062499999985167,-0.,-0.));
#159=IFCAXIS2PLACEMENT3D(#158,#144,#90);
#160=IFCCIRCLE(#159,0.098958333333333343);
#161=IFCEDGECURVE(#152,#157,#160,.T.);
#162=IFCVECTOR(#144,1.);
#163=IFCLINE(#141,#162);
#164=IFCEDGECURVE(#157,#142,#163,.T.);
#165=IFCAXIS2PLACEMENT3D(#158,#144,#90);
#166=IFCCIRCLE(#165,0.098958333333333343);
#167=IFCEDGECURVE(#157,#152,#166,.T.);
#168=IFCCARTESIANPOINT((0.098958333333363568,0.8906249999999869,-0.));
#169=IFCVERTEXPOINT(#168);
#170=IFCCARTESIANPOINT((-0.89062499999996991,0.89062499999998868,-0.));
#171=IFCAXIS2PLACEMENT3D(#170,#57,#55);
#172=IFCCIRCLE(#171,0.98958333333333348);
#173=IFCEDGECURVE(#152,#169,#172,.T.);
#174=IFCCARTESIANPOINT((-0.098958333333303172,0.89062499999998757,-0.));
#175=IFCVERTEXPOINT(#174);
#176=IFCCARTESIANPOINT((0.,0.89062499999998757,-0.));
#177=IFCAXIS2PLACEMENT3D(#176,#55,#144);
#178=IFCCIRCLE(#177,0.098958333333333343);
#179=IFCEDGECURVE(#169,#175,#178,.T.);
#180=IFCDIRECTION((0.,0.,-1.));
#181=IFCAXIS2PLACEMENT3D(#170,#180,#55);
#182=IFCCIRCLE(#181,0.79166666666666674);
#183=IFCEDGECURVE(#175,#157,#182,.T.);
#184=IFCAXIS2PLACEMENT3D(#176,#55,#144);
#185=IFCCIRCLE(#184,0.098958333333333343);
#186=IFCEDGECURVE(#175,#169,#185,.T.);
#187=IFCCARTESIANPOINT((0.098958333333363596,1.0572916666666541,-0.));
#188=IFCVERTEXPOINT(#187);
#189=IFCCARTESIANPOINT((-0.098958333333303089,1.0572916666666541,-0.));
#190=IFCVERTEXPOINT(#189);
#191=IFCCARTESIANPOINT((0.,1.0572916666666541,-0.));
#192=IFCAXIS2PLACEMENT3D(#191,#90,#144);
#193=IFCCIRCLE(#192,0.098958333333333343);
#194=IFCEDGECURVE(#188,#190,#193,.T.);
#195=IFCAXIS2PLACEMENT3D(#191,#90,#144);
#196=IFCCIRCLE(#195,0.098958333333333343);
#197=IFCEDGECURVE(#190,#188,#196,.T.);
#198=IFCVECTOR(#90,1.);
#199=IFCLINE(#168,#198);
#200=IFCEDGECURVE(#169,#188,#199,.T.);
#201=IFCVECTOR(#55,1.);
#202=IFCLINE(#174,#201);
#203=IFCEDGECURVE(#190,#175,#202,.T.);
#204=IFCORIENTEDEDGE(*,*,#147,.T.);
#205=IFCORIENTEDEDGE(*,*,#150,.T.);
#206=IFCEDGELOOP((#204,#205));
#207=IFCFACEOUTERBOUND(#206,.T.);
#208=IFCAXIS2PLACEMENT3D(#143,#144,#57);
#209=IFCPLANE(#208);
#210=IFCADVANCEDFACE((#207),#209,.T.);
#211=IFCORIENTEDEDGE(*,*,#147,.F.);
#212=IFCORIENTEDEDGE(*,*,#155,.T.);
#213=IFCORIENTEDEDGE(*,*,#161,.T.);
#214=IFCORIENTEDEDGE(*,*,#164,.T.);
#215=IFCEDGELOOP((#211,#212,#213,#214));
#216=IFCFACEOUTERBOUND(#215,.T.);
#217=IFCAXIS2PLACEMENT3D(#143,#144,#90);
#218=IFCCYLINDRICALSURFACE(#217,0.098958333333333343);
#219=IFCADVANCEDFACE((#216),#218,.T.);
#220=IFCORIENTEDEDGE(*,*,#150,.F.);
#221=IFCORIENTEDEDGE(*,*,#164,.F.);
#222=IFCORIENTEDEDGE(*,*,#167,.T.);
#223=IFCORIENTEDEDGE(*,*,#155,.F.);
#224=IFCEDGELOOP((#220,#221,#222,#223));
#225=IFCFACEOUTERBOUND(#224,.T.);
#226=IFCAXIS2PLACEMENT3D(#143,#144,#90);
#227=IFCCYLINDRICALSURFACE(#226,0.098958333333333343);
#228=IFCADVANCEDFACE((#225),#227,.T.);
#229=IFCORIENTEDEDGE(*,*,#183,.T.);
#230=IFCORIENTEDEDGE(*,*,#161,.F.);
#231=IFCORIENTEDEDGE(*,*,#173,.T.);
#232=IFCORIENTEDEDGE(*,*,#179,.T.);
#233=IFCEDGELOOP((#229,#230,#231,#232));
#234=IFCFACEOUTERBOUND(#233,.T.);
#235=IFCAXIS1PLACEMENT(#170,#57);
#236=IFCAXIS2PLACEMENT3D(#176,#55,#144);
#237=IFCCIRCLE(#236,0.098958333333333343);
#238=IFCTRIMMEDCURVE(#237,(#168),(#174),.T.,.CARTESIAN.);
#239=IFCARBITRARYOPENPROFILEDEF(.CURVE.,'Revolved Face Profile Curve',#238);
#240=IFCSURFACEOFREVOLUTION(#239,$,#235);
#241=IFCADVANCEDFACE((#234),#240,.T.);
#242=IFCORIENTEDEDGE(*,*,#173,.F.);
#243=IFCORIENTEDEDGE(*,*,#167,.F.);
#244=IFCORIENTEDEDGE(*,*,#183,.F.);
#245=IFCORIENTEDEDGE(*,*,#186,.T.);
#246=IFCEDGELOOP((#242,#243,#244,#245));
#247=IFCFACEOUTERBOUND(#246,.T.);
#248=IFCAXIS1PLACEMENT(#170,#57);
#249=IFCAXIS2PLACEMENT3D(#176,#55,#144);
#250=IFCCIRCLE(#249,0.098958333333333343);
#251=IFCTRIMMEDCURVE(#250,(#174),(#168),.T.,.CARTESIAN.);
#252=IFCARBITRARYOPENPROFILEDEF(.CURVE.,'Revolved Face Profile Curve',#251);
#253=IFCSURFACEOFREVOLUTION(#252,$,#248);
#254=IFCADVANCEDFACE((#247),#253,.T.);
#255=IFCORIENTEDEDGE(*,*,#194,.T.);
#256=IFCORIENTEDEDGE(*,*,#197,.T.);
#257=IFCEDGELOOP((#255,#256));
#258=IFCFACEOUTERBOUND(#257,.T.);
#259=IFCAXIS2PLACEMENT3D(#191,#90,#57);
#260=IFCPLANE(#259);
#261=IFCADVANCEDFACE((#258),#260,.T.);
#262=IFCORIENTEDEDGE(*,*,#179,.F.);
#263=IFCORIENTEDEDGE(*,*,#200,.T.);
#264=IFCORIENTEDEDGE(*,*,#197,.F.);
#265=IFCORIENTEDEDGE(*,*,#203,.T.);
#266=IFCEDGELOOP((#262,#263,#264,#265));
#267=IFCFACEOUTERBOUND(#266,.T.);
#268=IFCAXIS2PLACEMENT3D(#176,#55,#144);
#269=IFCCYLINDRICALSURFACE(#268,0.098958333333333343);
#270=IFCADVANCEDFACE((#267),#269,.T.);
#271=IFCORIENTEDEDGE(*,*,#186,.F.);
#272=IFCORIENTEDEDGE(*,*,#203,.F.);
#273=IFCORIENTEDEDGE(*,*,#194,.F.);
#274=IFCORIENTEDEDGE(*,*,#200,.F.);
#275=IFCEDGELOOP((#271,#272,#273,#274));
#276=IFCFACEOUTERBOUND(#275,.T.);
#277=IFCAXIS2PLACEMENT3D(#176,#55,#144);
#278=IFCCYLINDRICALSURFACE(#277,0.098958333333333343);
#279=IFCADVANCEDFACE((#276),#278,.T.);
#280=IFCCLOSEDSHELL((#210,#219,#228,#241,#254,#261,#270,#279));
#281=IFCADVANCEDBREP(#280);
#282=IFCSHAPEREPRESENTATION(#24,'Body','AdvancedBrep',(#281));
#283=IFCAXIS2PLACEMENT3D(#19,$,$);
#284=IFCREPRESENTATIONMAP(#283,#282);
#285=IFCCABLECARRIERFITTINGTYPE('32xvq5A2n68wmfrqZGZFSp',#6,'Conduit Elbow - without Fittings - RNC:Standard',$,$,$,(#284),'500408',$,.NOTDEFINED.);
#286=IFCMATERIAL('<Unnamed>',$,$);
#287=IFCCARTESIANTRANSFORMATIONOPERATOR3D($,$,#19,1.,$);
#288=IFCMAPPEDITEM(#284,#287);
#289=IFCSHAPEREPRESENTATION(#24,'Body','MappedRepresentation',(#288));
#290=IFCPRODUCTDEFINITIONSHAPE($,$,(#289));
#291=IFCCARTESIANPOINT((26.426317800627878,5.9886583698531712,9.));
#292=IFCAXIS2PLACEMENT3D(#291,$,$);
#293=IFCLOCALPLACEMENT(#32,#292);
#294=IFCCABLECARRIERFITTING('32xvq5A2n68wmfrqZGZFSn',#6,'Conduit Elbow - without Fittings - RNC:Standard:854433',$,$,#293,#290,'854433',.NOTDEFINED.);
#295=IFCPROPERTYSINGLEVALUE('Reference',$,IFCIDENTIFIER('Standard'),$);
#296=IFCPROPERTYSET('1pZducdyHtHSfy0wxaaSdw',#6,'Pset_CableCarrierFittingTypeCommon',$,(#295));
#297=IFCPROPERTYSET('2dNO$68woHFR8ZUli6S1sj',#6,'Pset_EnvironmentalImpactIndicators',$,(#295));
#298=IFCRELDEFINESBYPROPERTIES('3qQ2EqYx2xjAuzCvMkWtCc',#6,$,$,(#294),#296);
#299=IFCRELDEFINESBYPROPERTIES('2HwbTjOgQkvzU7ugg39mj$',#6,$,$,(#294),#297);
#300=IFCQUANTITYAREA('NetSurfaceArea','',$,1.1386345664968973,$);
#301=IFCQUANTITYVOLUME('NetVolume','',$,0.053293122900788296,$);
#302=IFCELEMENTQUANTITY('3H68flfy_o0juINKBA$Sq0',#6,'Qto_BodyGeometryValidation',$,'BaseQuantities',(#300,#301));
#303=IFCRELDEFINESBYPROPERTIES('0IYKD2285DACvfB9Bov8Ao',#6,$,$,(#294),#302);
#304=IFCMAPPEDITEM(#284,#287);
#305=IFCSHAPEREPRESENTATION(#24,'Body','MappedRepresentation',(#304));
#306=IFCPRODUCTDEFINITIONSHAPE($,$,(#305));
#307=IFCCARTESIANPOINT((26.42631780062786,41.988658369853113,9.));
#308=IFCAXIS2PLACEMENT3D(#307,#57,#144);
#309=IFCLOCALPLACEMENT(#32,#308);
#310=IFCCABLECARRIERFITTING('32xvq5A2n68wmfrqZGZFSx',#6,'Conduit Elbow - without Fittings - RNC:Standard:854443',$,$,#309,#306,'854443',.NOTDEFINED.);
#311=IFCPROPERTYSET('0iYH3AyhC5HDur5exydkyN',#6,'Pset_CableCarrierFittingTypeCommon',$,(#295));
#312=IFCPROPERTYSET('3LXpNbw6vYiDWBcTxQAGSd',#6,'Pset_EnvironmentalImpactIndicators',$,(#295));
#313=IFCRELDEFINESBYPROPERTIES('3CcQJs94oHyaNQCIgL6Jgb',#6,$,$,(#310),#311);
#314=IFCRELDEFINESBYPROPERTIES('1Mqq5nlROySzL02x6akdRe',#6,$,$,(#310),#312);
#315=IFCQUANTITYAREA('NetSurfaceArea','',$,1.1386345664968973,$);
#316=IFCQUANTITYVOLUME('NetVolume','',$,0.053293122900788352,$);
#317=IFCELEMENTQUANTITY('17zezc58dfM0fKpK7C$kBm',#6,'Qto_BodyGeometryValidation',$,'BaseQuantities',(#315,#316));
#318=IFCRELDEFINESBYPROPERTIES('2TDQh4cvCW1unI7uk463ZI',#6,$,$,(#310),#317);
#319=IFCCARTESIANPOINT((0.,0.10419216612867022,-0.1041921661283336));
#320=IFCAXIS2PLACEMENT3D(#319,#144,#90);
#321=IFCLOCALPLACEMENT(#48,#320);
#322=IFCDISTRIBUTIONPORT('0BtA2MLymfG1dSaFBEEbUc',#6,'Port_854413_0','Flow',$,#321,$,.SOURCEANDSINK.,.CABLECARRIER.,.CONVEYING.);
#323=IFCCARTESIANPOINT((94.942708333333371,0.10419216612833271,-0.1041921661283407));
#324=IFCAXIS2PLACEMENT3D(#323,#54,#55);
#325=IFCLOCALPLACEMENT(#48,#324);
#326=IFCDISTRIBUTIONPORT('3hvdojReTI3XkWdrruCVbc',#6,'Port_854413_1','Flow',$,#325,$,.SOURCEANDSINK.,.CABLECARRIER.,.CONVEYING.);
#327=IFCCARTESIANPOINT((-1.0572916666666146,-0.,-0.));
#328=IFCAXIS2PLACEMENT3D(#327,#144,#55);
#329=IFCLOCALPLACEMENT(#293,#328);
#330=IFCDISTRIBUTIONPORT('1iWvE$uAmMC2zG5mx_xALE',#6,'Port_854433_1','Flow',$,#329,$,.SOURCEANDSINK.,.CABLECARRIER.,.CONVEYING.);
#331=IFCRELCONNECTSPORTS('0cwHDAMQTmm8cD9pAyAX5_',#6,'3hvdojReTI3XkWdrruCVbc|1iWvE$uAmMC2zG5mx_xALE','Flow',#326,#330,$);
#332=IFCCARTESIANPOINT((0.10419216612845261,0.,0.1041921661283336));
#333=IFCAXIS2PLACEMENT3D(#332,#55,#144);
#334=IFCLOCALPLACEMENT(#85,#333);
#335=IFCDISTRIBUTIONPORT('3_IelmdKdrt4jfGkqx18Tv',#6,'Port_854424_0','Flow',$,#334,$,.SOURCEANDSINK.,.CABLECARRIER.,.CONVEYING.);
#336=IFCCARTESIANPOINT((0.,1.057291666666627,-0.));
#337=IFCAXIS2PLACEMENT3D(#336,#90,#144);
#338=IFCLOCALPLACEMENT(#293,#337);
#339=IFCDISTRIBUTIONPORT('0oL34MyvIOTaHlXuPh9opK',#6,'Port_854433_2','Flow',$,#338,$,.SOURCEANDSINK.,.CABLECARRIER.,.CONVEYING.);
#340=IFCRELCONNECTSPORTS('1MEmcxGwwsRX6UhU7qB9MB',#6,'3_IelmdKdrt4jfGkqx18Tv|0oL34MyvIOTaHlXuPh9opK','Flow',#335,#339,$);
#341=IFCCARTESIANPOINT((0.10419216612832827,33.885416666666686,0.1041921661283336));
#342=IFCAXIS2PLACEMENT3D(#341,#90,#54);
#343=IFCLOCALPLACEMENT(#85,#342);
#344=IFCDISTRIBUTIONPORT('28D88QDHlo0ZJcvHSyNx83',#6,'Port_854424_1','Flow',$,#343,$,.SOURCEANDSINK.,.CABLECARRIER.,.CONVEYING.);
#345=IFCCARTESIANPOINT((0.,1.0572916666666288,-0.));
#346=IFCAXIS2PLACEMENT3D(#345,#90,#144);
#347=IFCLOCALPLACEMENT(#309,#346);
#348=IFCDISTRIBUTIONPORT('1XDc_6l4lCpEHimccxY9I8',#6,'Port_854443_2','Flow',$,#347,$,.SOURCEANDSINK.,.CABLECARRIER.,.CONVEYING.);
#349=IFCRELCONNECTSPORTS('0EbFLeDzIyvMBYozz2CR7I',#6,'28D88QDHlo0ZJcvHSyNx83|1XDc_6l4lCpEHimccxY9I8','Flow',#344,#348,$);
#350=IFCCARTESIANPOINT((0.,0.10419216612833537,0.1041921661283336));
#351=IFCAXIS2PLACEMENT3D(#350,#144,#90);
#352=IFCLOCALPLACEMENT(#113,#351);
#353=IFCDISTRIBUTIONPORT('2tmKJJ1ZGfaRtFR48xgKuP',#6,'Port_854431_0','Flow',$,#352,$,.SOURCEANDSINK.,.CABLECARRIER.,.CONVEYING.);
#354=IFCCARTESIANPOINT((-1.0572916666666146,-0.,-0.));
#355=IFCAXIS2PLACEMENT3D(#354,#144,#55);
#356=IFCLOCALPLACEMENT(#309,#355);
#357=IFCDISTRIBUTIONPORT('3yPoC9inA3aFPYG$Drxziv',#6,'Port_854443_1','Flow',$,#356,$,.SOURCEANDSINK.,.CABLECARRIER.,.CONVEYING.);
#358=IFCRELCONNECTSPORTS('3HJ0IubYUaiOkw4dzvM57n',#6,'2tmKJJ1ZGfaRtFR48xgKuP|3yPoC9inA3aFPYG$Drxziv','Flow',#353,#357,$);
#359=IFCCARTESIANPOINT((54.942708333333357,0.10419216612839222,0.1041921661283407));
#360=IFCAXIS2PLACEMENT3D(#359,#54,#55);
#361=IFCLOCALPLACEMENT(#113,#360);
#362=IFCDISTRIBUTIONPORT('0AEQRL9VUeijsftHNo_7sx',#6,'Port_854431_1','Flow',$,#361,$,.SOURCEANDSINK.,.CABLECARRIER.,.CONVEYING.);
#363=IFCRELNESTS('0h7fK6LbUN2GDkDAU0FtnL',#6,'NestedPorts','Flow',#67,(#322,#326));
#364=IFCRELNESTS('0jqrgfon$Jkpq9kIlaFaxD',#6,'NestedPorts','Flow',#294,(#330,#339));
#365=IFCRELNESTS('2gX6_YdjD$VMPR4IkY9GYm',#6,'NestedPorts','Flow',#96,(#335,#344));
#366=IFCRELNESTS('2ICWpfnS4TuVH_eh7Zauwa',#6,'NestedPorts','Flow',#310,(#348,#357));
#367=IFCRELNESTS('2lL4amwjMk4gfBZmYCBi7P',#6,'NestedPorts','Flow',#123,(#353,#362));
#368=IFCPROPERTYSINGLEVALUE('Reference',$,IFCIDENTIFIER('1/4" Head'),$);
#369=IFCPROPERTYSINGLEVALUE('AboveGround',$,IFCLOGICAL(.U.),$);
#370=IFCPROPERTYSET('16L50AfyZF4hYq5TGET4H4',#6,'Pset_BuildingStoreyCommon',$,(#368,#369));
#371=IFCPROPERTYSET('2J7ac_h5ujdwWuzVwBIIta',#6,'Pset_SpaceCommon',$,(#43,#368));
#372=IFCRELDEFINESBYPROPERTIES('2VdfSfkgzGoZi_3SgzE8$0',#6,$,$,(#33),#370);
#373=IFCRELDEFINESBYPROPERTIES('3$YdOpA8iaPobC8MDiWxoI',#6,$,$,(#33),#371);
#374=IFCRELCONTAINEDINSPATIALSTRUCTURE('2JF4e6axWHqu3u0C5FZlmi',#6,$,$,(#67,#96,#123,#294,#310),#33);
#375=IFCPROPERTYSET('1n34enW33Z_3Qq2Pm1kjQZ',#6,'Pset_BuildingStoreyCommon',$,(#368,#369));
#376=IFCPROPERTYSET('0qNc4$IaPwTvoqOd7IlIE4',#6,'Pset_SpaceCommon',$,(#43,#368));
#377=IFCRELDEFINESBYPROPERTIES('36oM8gyLQ5_Z6XoGK5uP1E',#6,$,$,(#37),#375);
#378=IFCRELDEFINESBYPROPERTIES('0jA6Vdz$3CfPvu_I1iTL6J',#6,$,$,(#37),#376);
#379=IFCRELAGGREGATES('3zx5o3x2QNZQ8o6UJYuM0x',#6,$,$,#27,(#40));
#380=IFCRELAGGREGATES('2Jy9Ppi0llbDpFcSslUQ5_',#6,$,$,#40,(#30));
#381=IFCRELAGGREGATES('1yhDISh1T5aQqAoygxGIhP',#6,$,$,#30,(#33,#37));
#382=IFCPROPERTYSINGLEVALUE('NumberOfStoreys',$,IFCCOUNTMEASURE(2),$);
#383=IFCPROPERTYSINGLEVALUE('IsLandmarked',$,IFCLOGICAL(.U.),$);
#384=IFCPROPERTYSET('2vemDLwwkHYRTRzBuULXjj',#6,'Pset_BuildingCommon',$,(#41,#382,#383));
#385=IFCPROPERTYSET('1HI12ovhAipTSIKpLVnzBX',#6,'Pset_SpaceCommon',$,(#41,#43));
#386=IFCRELDEFINESBYPROPERTIES('3yjJmaETxCxo2KUcKzrpsg',#6,$,$,(#30),#384);
#387=IFCRELDEFINESBYPROPERTIES('22B__adegTAGOFm$BcjcZ6',#6,$,$,(#30),#385);
#388=IFCRELASSOCIATESMATERIAL('1ywHhvyqOJiYheOP2ICsxw',#6,$,$,(#285,#294,#310),#286);
#389=IFCRELDEFINESBYTYPE('3Go5W9WlcGCbw_KkOizV2P',#6,$,$,(#67,#96,#123),#66);
#390=IFCRELDEFINESBYTYPE('3W$sKjuAsSxe0oZCOnWjQ4',#6,$,$,(#294,#310),#285);
#391=IFCPRESENTATIONLAYERASSIGNMENT('E-POWR-CNDT',$,(#63,#93,#120,#282,#289,#305),$);
#392=IFCUNITASSIGNMENT((#10,#14,#18,#62));
ENDSEC;

END-ISO-10303-21;