ISO-10303-21;
HEADER;
FILE_DESCRIPTION(('ViewDefinition [ReferenceView_V1.2]','RevitIdentifiers [ContentGUID: fb5dd41d-2734-46c0-8d5b-0cedab4554cd, VersionGUID: c2ef9d05-282c-4623-ac29-d748d081fe90, NumberOfSaves: 1]','CoordinateReference [CoordinateBase: Shared Coordinates]','ExchangeRequirement [BuildingService]'),'2;1');
FILE_NAME('conduit_ref.ifc','2026-06-24T11:03:33-08:00',(''),(''),'ODA SDAI 25.12','Autodesk - Revit 27.1.0.45 (ENU) - 27.1.0.45','');
FILE_SCHEMA(('IFC4'));
ENDSEC;

DATA;
#1=IFCORGANIZATION($,'Autodesk Revit 2027 (ENU)',$,$,$);
#2=IFCAPPLICATION(#1,'2027','Autodesk Revit 2027 (ENU)','Revit');
#3=IFCPERSON($,'','pkhuat28',$,$,$,$,$);
#4=IFCORGANIZATION($,'','',$,$);
#5=IFCPERSONANDORGANIZATION(#3,#4,$);
#6=IFCOWNERHISTORY(#5,#2,$,.NOCHANGE.,$,$,$,1782323466);
#7=IFCSIUNIT(*,.LENGTHUNIT.,$,.METRE.);
#8=IFCDIMENSIONALEXPONENTS(1,0,0,0,0,0,0);
#9=IFCMEASUREWITHUNIT(IFCLENGTHMEASURE(0.30480000000000002),#7);
#10=IFCCONVERSIONBASEDUNIT(#8,.LENGTHUNIT.,'FOOT',#9);
#11=IFCSIUNIT(*,.AREAUNIT.,$,.SQUARE_METRE.);
#12=IFCDIMENSIONALEXPONENTS(2,0,0,0,0,0,0);
#13=IFCMEASUREWITHUNIT(IFCAREAMEASURE(0.092903040000000006),#11);
#14=IFCCONVERSIONBASEDUNIT(#12,.AREAUNIT.,'SQUARE FOOT',#13);
#15=IFCSIUNIT(*,.VOLUMEUNIT.,$,.CUBIC_METRE.);
#16=IFCDIMENSIONALEXPONENTS(3,0,0,0,0,0,0);
#17=IFCMEASUREWITHUNIT(IFCVOLUMEMEASURE(0.028316846592000004),#15);
#18=IFCCONVERSIONBASEDUNIT(#16,.VOLUMEUNIT.,'CUBIC FOOT',#17);
#19=IFCCARTESIANPOINT((0.,0.,0.));
#20=IFCAXIS2PLACEMENT3D(#19,$,$);
#21=IFCDIRECTION((0.,1.));
#22=IFCGEOMETRICREPRESENTATIONCONTEXT($,'Model',3,0.0001,#20,#21);
#23=IFCGEOMETRICREPRESENTATIONSUBCONTEXT('Axis','Model',*,*,*,*,#22,$,.GRAPH_VIEW.,$);
#24=IFCGEOMETRICREPRESENTATIONSUBCONTEXT('Body','Model',*,*,*,*,#22,$,.MODEL_VIEW.,$);
#25=IFCGEOMETRICREPRESENTATIONSUBCONTEXT('Box','Model',*,*,*,*,#22,$,.MODEL_VIEW.,$);
#26=IFCGEOMETRICREPRESENTATIONSUBCONTEXT('FootPrint','Model',*,*,*,*,#22,$,.MODEL_VIEW.,$);
#27=IFCPROJECT('3xNTGT9pH6m8rR3ErKkgiz',#6,'Project Number',$,$,'Project Name','Project Status',(#22),#606);
#28=IFCPOSTALADDRESS($,$,$,$,('Enter address here'),$,'','Boston','','MA');
#29=IFCAXIS2PLACEMENT3D(#19,$,$);
#30=IFCLOCALPLACEMENT(#40,#29);
#31=IFCBUILDING('3xNTGT9pH6m8rR3ErKkgiy',#6,'',$,$,#30,$,'',.ELEMENT.,$,$,#28);
#32=IFCAXIS2PLACEMENT3D(#19,$,$);
#33=IFCLOCALPLACEMENT(#30,#32);
#34=IFCBUILDINGSTOREY('2JF4e6axWHqu3u0C1FZlmi',#6,'Level 1',$,$,#33,$,'Level 1',.ELEMENT.,0.);
#35=IFCCARTESIANPOINT((0.,0.,10.));
#36=IFCAXIS2PLACEMENT3D(#35,$,$);
#37=IFCLOCALPLACEMENT(#30,#36);
#38=IFCBUILDINGSTOREY('1ZGO8hrFCHqw0v0026FpFv',#6,'Level 2',$,$,#37,$,'Level 2',.ELEMENT.,9.999999999998435);
#39=IFCAXIS2PLACEMENT3D(#19,$,$);
#40=IFCLOCALPLACEMENT($,#39);
#41=IFCSITE('3xNTGT9pH6m8rR3ErKkgi$',#6,'Default',$,$,#40,$,$,.ELEMENT.,(42,21,32,376708),(-71,-3,-31,-74829),0.,$,$);
#42=IFCPROPERTYSINGLEVALUE('Reference',$,IFCIDENTIFIER('Project Information'),$);
#43=IFCPROPERTYSET('2widuZgxndbdpzuurXDCOV',#6,'Pset_SiteCommon',$,(#42));
#44=IFCRELDEFINESBYPROPERTIES('2UYIcHgUZRQLKsYSCuyCuz',#6,$,$,(#41),#43);
#45=IFCAXIS2PLACEMENT3D(#19,$,$);
#46=IFCLOCALPLACEMENT(#33,#45);
#47=IFCCARTESIANPOINTLIST2D(((0.098958333333333037,0.),(0.069974108554919034,0.069974108554918146),(-8.8817841970012523E-016,0.098958333333333925),(-0.069974108554919034,0.069974108554918146),(-0.098958333333333037,-0.),(-0.069974108554919034,-0.069974108554918146),(-8.8817841970012523E-016,-0.098958333333333925),(0.069974108554918146,-0.069974108554919923)));
#48=IFCINDEXEDPOLYCURVE(#47,(IFCARCINDEX((1,2,3)),IFCARCINDEX((3,4,5)),IFCARCINDEX((5,6,7)),IFCARCINDEX((7,8,1))),.F.);
#49=IFCARBITRARYCLOSEDPROFILEDEF(.AREA.,'Rigid Nonmetallic Conduit (RNC Sch 40)',#48);
#50=IFCCARTESIANPOINT((-69.573682199372101,5.9886583698534537,9.));
#51=IFCDIRECTION((1.,0.,0.));
#52=IFCDIRECTION((0.,-1.,0.));
#53=IFCAXIS2PLACEMENT3D(#50,#51,#52);
#54=IFCDIRECTION((0.,0.,1.));
#55=IFCEXTRUDEDAREASOLID(#49,#53,#54,94.942708333333371);
#56=IFCSIUNIT(*,.PLANEANGLEUNIT.,$,.RADIAN.);
#57=IFCDIMENSIONALEXPONENTS(0,0,0,0,0,0,0);
#58=IFCMEASUREWITHUNIT(IFCPLANEANGLEMEASURE(0.017453292519943278),#56);
#59=IFCCONVERSIONBASEDUNIT(#57,.PLANEANGLEUNIT.,'DEGREE',#58);
#60=IFCSHAPEREPRESENTATION(#24,'Body','SweptSolid',(#55));
#61=IFCPRODUCTDEFINITIONSHAPE($,$,(#60));
#62=IFCCABLECARRIERSEGMENTTYPE('2JVYEFXE9CV8Fkdb4IKM7t',#6,'Conduit without Fittings:Rigid Nonmetallic Conduit (RNC Sch 40)',$,$,$,$,'505167',$,.CONDUITSEGMENT.);
#63=IFCCABLECARRIERSEGMENT('32xvq5A2n68wmfrqZGZFST',#6,'Conduit without Fittings:Rigid Nonmetallic Conduit (RNC Sch 40):854413',$,$,#46,#61,'854413',.CONDUITSEGMENT.);
#64=IFCPROPERTYSINGLEVALUE('Reference',$,IFCIDENTIFIER('Rigid Nonmetallic Conduit (RNC Sch 40)'),$);
#65=IFCPROPERTYSET('3NDHpllZZTq7ZIfsSutllr',#6,'Pset_CableCarrierSegmentTypeCommon',$,(#64));
#66=IFCPROPERTYSET('3ZcMcEucEeGHVdXJs2St99',#6,'Pset_EnvironmentalImpactIndicators',$,(#64));
#67=IFCRELDEFINESBYPROPERTIES('3E5QcQ1gSNs1WK3ooHOcQz',#6,$,$,(#63),#65);
#68=IFCRELDEFINESBYPROPERTIES('2UqhWo7To$l7uniydEAIOm',#6,$,$,(#63),#66);
#69=IFCQUANTITYLENGTH('Length','',$,94.942708333333371,$);
#70=IFCQUANTITYAREA('CrossSectionArea','',$,0.03076021130962452,$);
#71=IFCQUANTITYAREA('OuterSurfaceArea','',$,59.032864429442071,$);
#72=IFCELEMENTQUANTITY('0ensB5c8QZfe4wrz7E06Li',#6,'Qto_CableCarrierSegmentBaseQuantities',$,'BaseQuantities',(#69,#70,#71));
#73=IFCRELDEFINESBYPROPERTIES('0wDnwq4tXkm$e8K6xB3Zv_',#6,$,$,(#63),#72);
#74=IFCAXIS2PLACEMENT3D(#19,$,$);
#75=IFCLOCALPLACEMENT(#33,#74);
#76=IFCCARTESIANPOINTLIST2D(((0.098958333333332149,-0.),(0.069974108554919923,0.069974108554918146),(0.,0.098958333333333925),(-0.069974108554919923,0.069974108554918146),(-0.098958333333332149,0.),(-0.069974108554919923,-0.069974108554918146),(0.,-0.098958333333333925),(0.069974108554919923,-0.069974108554919923)));
#77=IFCINDEXEDPOLYCURVE(#76,(IFCARCINDEX((1,2,3)),IFCARCINDEX((3,4,5)),IFCARCINDEX((5,6,7)),IFCARCINDEX((7,8,1))),.F.);
#78=IFCARBITRARYCLOSEDPROFILEDEF(.AREA.,'Rigid Nonmetallic Conduit (RNC Sch 40)',#77);
#79=IFCCARTESIANPOINT((26.426317800627931,7.0459500365197982,9.));
#80=IFCDIRECTION((0.,1.,0.));
#81=IFCAXIS2PLACEMENT3D(#79,#80,#51);
#82=IFCEXTRUDEDAREASOLID(#78,#81,#54,33.885416666666686);
#83=IFCSHAPEREPRESENTATION(#24,'Body','SweptSolid',(#82));
#84=IFCPRODUCTDEFINITIONSHAPE($,$,(#83));
#85=IFCCABLECARRIERSEGMENT('32xvq5A2n68wmfrqZGZFS8',#6,'Conduit without Fittings:Rigid Nonmetallic Conduit (RNC Sch 40):854424',$,$,#75,#84,'854424',.CONDUITSEGMENT.);
#86=IFCPROPERTYSET('23moLqGS9hIjST3odx2Ejd',#6,'Pset_CableCarrierSegmentTypeCommon',$,(#64));
#87=IFCPROPERTYSET('0RRRyaHkezRUy8MJqRp5uG',#6,'Pset_EnvironmentalImpactIndicators',$,(#64));
#88=IFCRELDEFINESBYPROPERTIES('01B3FiewOYJvKAQGCpLW0g',#6,$,$,(#85),#86);
#89=IFCRELDEFINESBYPROPERTIES('0f3ycuyPTnI1ILCo5bZ55D',#6,$,$,(#85),#87);
#90=IFCQUANTITYLENGTH('Length','',$,33.885416666666686,$);
#91=IFCQUANTITYAREA('CrossSectionArea','',$,0.030760211309624967,$);
#92=IFCQUANTITYAREA('OuterSurfaceArea','',$,21.06905567929951,$);
#93=IFCELEMENTQUANTITY('13RwSkkJlBMweYZ$WejUdi',#6,'Qto_CableCarrierSegmentBaseQuantities',$,'BaseQuantities',(#90,#91,#92));
#94=IFCRELDEFINESBYPROPERTIES('2$mXmcHqZngHDmsWysgBtz',#6,$,$,(#85),#93);
#95=IFCAXIS2PLACEMENT3D(#19,$,$);
#96=IFCLOCALPLACEMENT(#33,#95);
#97=IFCCARTESIANPOINTLIST2D(((0.098958333333335702,0.),(0.06997410855491637,0.069974108554918146),(0.,0.098958333333333925),(-0.06997410855491637,0.069974108554918146),(-0.098958333333335702,-0.),(-0.06997410855491637,-0.069974108554918146),(0.,-0.098958333333333925),(0.06997410855491637,-0.069974108554919923)));
#98=IFCINDEXEDPOLYCURVE(#97,(IFCARCINDEX((1,2,3)),IFCARCINDEX((3,4,5)),IFCARCINDEX((5,6,7)),IFCARCINDEX((7,8,1))),.F.);
#99=IFCARBITRARYCLOSEDPROFILEDEF(.AREA.,'Rigid Nonmetallic Conduit (RNC Sch 40)',#98);
#100=IFCCARTESIANPOINT((27.483609467294475,41.988658369853169,9.));
#101=IFCAXIS2PLACEMENT3D(#100,#51,#52);
#102=IFCEXTRUDEDAREASOLID(#99,#101,#54,54.942708333333357);
#103=IFCSHAPEREPRESENTATION(#24,'Body','SweptSolid',(#102));
#104=IFCPRODUCTDEFINITIONSHAPE($,$,(#103));
#105=IFCCABLECARRIERSEGMENT('32xvq5A2n68wmfrqZGZFSF',#6,'Conduit without Fittings:Rigid Nonmetallic Conduit (RNC Sch 40):854431',$,$,#96,#104,'854431',.CONDUITSEGMENT.);
#106=IFCPROPERTYSET('0RIR5JzKOKTwUJBzkmqcAP',#6,'Pset_CableCarrierSegmentTypeCommon',$,(#64));
#107=IFCPROPERTYSET('0eBgPaTMa62aQQC1jxy2Zb',#6,'Pset_EnvironmentalImpactIndicators',$,(#64));
#108=IFCRELDEFINESBYPROPERTIES('0uNoW858037BPavvsIrXf5',#6,$,$,(#105),#106);
#109=IFCRELDEFINESBYPROPERTIES('0aPxsPHsI1GzQO99F2j4dJ',#6,$,$,(#105),#107);
#110=IFCQUANTITYLENGTH('Length','',$,54.942708333333357,$);
#111=IFCQUANTITYAREA('CrossSectionArea','',$,0.030760211309623954,$);
#112=IFCQUANTITYAREA('OuterSurfaceArea','',$,34.161922588522977,$);
#113=IFCELEMENTQUANTITY('326$1B76vxpFNr7jnw2vC3',#6,'Qto_CableCarrierSegmentBaseQuantities',$,'BaseQuantities',(#110,#111,#112));
#114=IFCRELDEFINESBYPROPERTIES('2tctjpi8ewNwfvbSuOOXGy',#6,$,$,(#105),#113);
#115=IFCINDEXEDPOLYGONALFACE((17,18,19,20,21,22,23,24,1,2,3,4,5,6,7,8,9,10,11,12,13,14,15,16));
#116=IFCINDEXEDPOLYGONALFACE((26,2,1,25));
#117=IFCINDEXEDPOLYGONALFACE((27,3,2,26));
#118=IFCINDEXEDPOLYGONALFACE((5,4,28,29));
#119=IFCINDEXEDPOLYGONALFACE((4,3,27,28));
#120=IFCINDEXEDPOLYGONALFACE((6,5,29,30));
#121=IFCINDEXEDPOLYGONALFACE((30,31,7,6));
#122=IFCINDEXEDPOLYGONALFACE((9,8,32,33));
#123=IFCINDEXEDPOLYGONALFACE((34,10,9,33));
#124=IFCINDEXEDPOLYGONALFACE((12,11,35,36));
#125=IFCINDEXEDPOLYGONALFACE((34,35,11,10));
#126=IFCINDEXEDPOLYGONALFACE((13,12,36,37));
#127=IFCINDEXEDPOLYGONALFACE((32,8,7,31));
#128=IFCINDEXEDPOLYGONALFACE((38,14,13,37));
#129=IFCINDEXEDPOLYGONALFACE((39,15,14,38));
#130=IFCINDEXEDPOLYGONALFACE((41,42,18,17));
#131=IFCINDEXEDPOLYGONALFACE((40,16,15,39));
#132=IFCINDEXEDPOLYGONALFACE((17,16,40,41));
#133=IFCINDEXEDPOLYGONALFACE((42,43,19,18));
#134=IFCINDEXEDPOLYGONALFACE((21,20,44,45));
#135=IFCINDEXEDPOLYGONALFACE((46,22,21,45));
#136=IFCINDEXEDPOLYGONALFACE((24,23,47,48));
#137=IFCINDEXEDPOLYGONALFACE((46,47,23,22));
#138=IFCINDEXEDPOLYGONALFACE((1,24,48,25));
#139=IFCINDEXEDPOLYGONALFACE((44,20,19,43));
#140=IFCINDEXEDPOLYGONALFACE((123,96,141));
#141=IFCINDEXEDPOLYGONALFACE((57,87,56));
#142=IFCINDEXEDPOLYGONALFACE((61,62,88));
#143=IFCINDEXEDPOLYGONALFACE((86,136,58));
#144=IFCINDEXEDPOLYGONALFACE((56,26,25));
#145=IFCINDEXEDPOLYGONALFACE((139,26,87));
#146=IFCINDEXEDPOLYGONALFACE((83,113,96));
#147=IFCINDEXEDPOLYGONALFACE((81,134,122));
#148=IFCINDEXEDPOLYGONALFACE((59,86,58));
#149=IFCINDEXEDPOLYGONALFACE((57,136,87));
#150=IFCINDEXEDPOLYGONALFACE((28,96,29));
#151=IFCINDEXEDPOLYGONALFACE((54,55,91));
#152=IFCINDEXEDPOLYGONALFACE((30,29,113));
#153=IFCINDEXEDPOLYGONALFACE((74,50,93));
#154=IFCINDEXEDPOLYGONALFACE((118,76,117));
#155=IFCINDEXEDPOLYGONALFACE((101,66,94));
#156=IFCINDEXEDPOLYGONALFACE((73,90,72));
#157=IFCINDEXEDPOLYGONALFACE((97,104,31));
#158=IFCINDEXEDPOLYGONALFACE((54,91,132));
#159=IFCINDEXEDPOLYGONALFACE((80,91,121));
#160=IFCINDEXEDPOLYGONALFACE((82,98,111));
#161=IFCINDEXEDPOLYGONALFACE((95,68,69));
#162=IFCINDEXEDPOLYGONALFACE((32,31,104));
#163=IFCINDEXEDPOLYGONALFACE((93,81,122));
#164=IFCINDEXEDPOLYGONALFACE((137,121,89));
#165=IFCINDEXEDPOLYGONALFACE((81,92,133));
#166=IFCINDEXEDPOLYGONALFACE((66,67,94));
#167=IFCINDEXEDPOLYGONALFACE((55,37,36));
#168=IFCINDEXEDPOLYGONALFACE((132,80,92));
#169=IFCINDEXEDPOLYGONALFACE((79,138,116));
#170=IFCINDEXEDPOLYGONALFACE((93,122,74));
#171=IFCINDEXEDPOLYGONALFACE((30,97,31));
#172=IFCINDEXEDPOLYGONALFACE((32,125,33));
#173=IFCINDEXEDPOLYGONALFACE((111,98,109));
#174=IFCINDEXEDPOLYGONALFACE((86,142,119));
#175=IFCINDEXEDPOLYGONALFACE((89,35,34));
#176=IFCINDEXEDPOLYGONALFACE((82,112,95));
#177=IFCINDEXEDPOLYGONALFACE((53,54,132));
#178=IFCINDEXEDPOLYGONALFACE((78,86,107));
#179=IFCINDEXEDPOLYGONALFACE((55,36,91));
#180=IFCINDEXEDPOLYGONALFACE((79,119,120));
#181=IFCINDEXEDPOLYGONALFACE((88,120,61));
#182=IFCINDEXEDPOLYGONALFACE((36,35,121));
#183=IFCINDEXEDPOLYGONALFACE((69,102,95));
#184=IFCINDEXEDPOLYGONALFACE((133,134,81));
#185=IFCINDEXEDPOLYGONALFACE((65,101,138));
#186=IFCINDEXEDPOLYGONALFACE((67,68,112));
#187=IFCINDEXEDPOLYGONALFACE((67,112,94));
#188=IFCINDEXEDPOLYGONALFACE((34,33,99));
#189=IFCINDEXEDPOLYGONALFACE((65,88,64));
#190=IFCINDEXEDPOLYGONALFACE((80,121,137));
#191=IFCINDEXEDPOLYGONALFACE((63,64,62));
#192=IFCINDEXEDPOLYGONALFACE((110,100,90));
#193=IFCINDEXEDPOLYGONALFACE((62,64,88));
#194=IFCINDEXEDPOLYGONALFACE((50,51,93));
#195=IFCINDEXEDPOLYGONALFACE((52,53,92));
#196=IFCINDEXEDPOLYGONALFACE((30,113,97));
#197=IFCINDEXEDPOLYGONALFACE((93,51,135));
#198=IFCINDEXEDPOLYGONALFACE((49,50,74));
#199=IFCINDEXEDPOLYGONALFACE((96,28,103));
#200=IFCINDEXEDPOLYGONALFACE((75,105,106));
#201=IFCINDEXEDPOLYGONALFACE((34,99,89));
#202=IFCINDEXEDPOLYGONALFACE((78,103,139));
#203=IFCINDEXEDPOLYGONALFACE((100,71,72));
#204=IFCINDEXEDPOLYGONALFACE((52,92,135));
#205=IFCINDEXEDPOLYGONALFACE((135,81,93));
#206=IFCINDEXEDPOLYGONALFACE((142,60,120));
#207=IFCINDEXEDPOLYGONALFACE((89,99,105));
#208=IFCINDEXEDPOLYGONALFACE((107,76,115));
#209=IFCINDEXEDPOLYGONALFACE((95,98,82));
#210=IFCINDEXEDPOLYGONALFACE((70,71,114));
#211=IFCINDEXEDPOLYGONALFACE((100,110,84));
#212=IFCINDEXEDPOLYGONALFACE((26,56,87));
#213=IFCINDEXEDPOLYGONALFACE((136,78,87));
#214=IFCINDEXEDPOLYGONALFACE((133,92,80));
#215=IFCINDEXEDPOLYGONALFACE((100,72,90));
#216=IFCINDEXEDPOLYGONALFACE((66,101,65));
#217=IFCINDEXEDPOLYGONALFACE((102,69,70));
#218=IFCINDEXEDPOLYGONALFACE((127,98,126));
#219=IFCINDEXEDPOLYGONALFACE((103,28,27));
#220=IFCINDEXEDPOLYGONALFACE((115,78,107));
#221=IFCINDEXEDPOLYGONALFACE((109,98,77));
#222=IFCINDEXEDPOLYGONALFACE((131,104,108));
#223=IFCINDEXEDPOLYGONALFACE((95,102,126));
#224=IFCINDEXEDPOLYGONALFACE((77,108,109));
#225=IFCINDEXEDPOLYGONALFACE((125,99,33));
#226=IFCINDEXEDPOLYGONALFACE((105,75,137));
#227=IFCINDEXEDPOLYGONALFACE((110,75,106));
#228=IFCINDEXEDPOLYGONALFACE((114,100,84));
#229=IFCINDEXEDPOLYGONALFACE((116,101,94));
#230=IFCINDEXEDPOLYGONALFACE((88,138,79));
#231=IFCINDEXEDPOLYGONALFACE((114,102,70));
#232=IFCINDEXEDPOLYGONALFACE((95,126,98));
#233=IFCINDEXEDPOLYGONALFACE((139,103,27));
#234=IFCINDEXEDPOLYGONALFACE((141,78,115));
#235=IFCINDEXEDPOLYGONALFACE((108,104,97));
#236=IFCINDEXEDPOLYGONALFACE((125,104,85));
#237=IFCINDEXEDPOLYGONALFACE((99,85,105));
#238=IFCINDEXEDPOLYGONALFACE((128,129,77));
#239=IFCINDEXEDPOLYGONALFACE((129,105,85));
#240=IFCINDEXEDPOLYGONALFACE((127,128,77));
#241=IFCINDEXEDPOLYGONALFACE((79,117,119));
#242=IFCINDEXEDPOLYGONALFACE((116,117,79));
#243=IFCINDEXEDPOLYGONALFACE((108,140,109));
#244=IFCINDEXEDPOLYGONALFACE((77,129,131));
#245=IFCINDEXEDPOLYGONALFACE((140,108,97));
#246=IFCINDEXEDPOLYGONALFACE((111,109,124));
#247=IFCINDEXEDPOLYGONALFACE((110,90,134));
#248=IFCINDEXEDPOLYGONALFACE((84,110,106));
#249=IFCINDEXEDPOLYGONALFACE((123,124,83));
#250=IFCINDEXEDPOLYGONALFACE((118,111,76));
#251=IFCINDEXEDPOLYGONALFACE((95,112,68));
#252=IFCINDEXEDPOLYGONALFACE((94,112,82));
#253=IFCINDEXEDPOLYGONALFACE((96,113,29));
#254=IFCINDEXEDPOLYGONALFACE((97,113,83));
#255=IFCINDEXEDPOLYGONALFACE((100,114,71));
#256=IFCINDEXEDPOLYGONALFACE((102,114,84));
#257=IFCINDEXEDPOLYGONALFACE((123,115,76));
#258=IFCINDEXEDPOLYGONALFACE((103,141,96));
#259=IFCINDEXEDPOLYGONALFACE((118,94,82));
#260=IFCINDEXEDPOLYGONALFACE((117,76,107));
#261=IFCINDEXEDPOLYGONALFACE((117,116,118));
#262=IFCINDEXEDPOLYGONALFACE((119,117,107));
#263=IFCINDEXEDPOLYGONALFACE((94,118,116));
#264=IFCINDEXEDPOLYGONALFACE((111,118,82));
#265=IFCINDEXEDPOLYGONALFACE((107,86,119));
#266=IFCINDEXEDPOLYGONALFACE((142,120,119));
#267=IFCINDEXEDPOLYGONALFACE((61,120,60));
#268=IFCINDEXEDPOLYGONALFACE((88,79,120));
#269=IFCINDEXEDPOLYGONALFACE((36,121,91));
#270=IFCINDEXEDPOLYGONALFACE((35,89,121));
#271=IFCINDEXEDPOLYGONALFACE((90,73,122));
#272=IFCINDEXEDPOLYGONALFACE((74,122,73));
#273=IFCINDEXEDPOLYGONALFACE((111,123,76));
#274=IFCINDEXEDPOLYGONALFACE((96,123,83));
#275=IFCINDEXEDPOLYGONALFACE((111,124,123));
#276=IFCINDEXEDPOLYGONALFACE((140,124,109));
#277=IFCINDEXEDPOLYGONALFACE((104,125,32));
#278=IFCINDEXEDPOLYGONALFACE((99,125,85));
#279=IFCINDEXEDPOLYGONALFACE((84,130,102));
#280=IFCINDEXEDPOLYGONALFACE((98,127,77));
#281=IFCINDEXEDPOLYGONALFACE((126,130,127));
#282=IFCINDEXEDPOLYGONALFACE((128,84,106));
#283=IFCINDEXEDPOLYGONALFACE((128,127,130));
#284=IFCINDEXEDPOLYGONALFACE((129,128,106));
#285=IFCINDEXEDPOLYGONALFACE((105,129,106));
#286=IFCINDEXEDPOLYGONALFACE((129,85,131));
#287=IFCINDEXEDPOLYGONALFACE((102,130,126));
#288=IFCINDEXEDPOLYGONALFACE((128,130,84));
#289=IFCINDEXEDPOLYGONALFACE((104,131,85));
#290=IFCINDEXEDPOLYGONALFACE((77,131,108));
#291=IFCINDEXEDPOLYGONALFACE((80,132,91));
#292=IFCINDEXEDPOLYGONALFACE((53,132,92));
#293=IFCINDEXEDPOLYGONALFACE((137,133,80));
#294=IFCINDEXEDPOLYGONALFACE((134,133,75));
#295=IFCINDEXEDPOLYGONALFACE((110,134,75));
#296=IFCINDEXEDPOLYGONALFACE((122,134,90));
#297=IFCINDEXEDPOLYGONALFACE((52,135,51));
#298=IFCINDEXEDPOLYGONALFACE((81,135,92));
#299=IFCINDEXEDPOLYGONALFACE((58,136,57));
#300=IFCINDEXEDPOLYGONALFACE((78,136,86));
#301=IFCINDEXEDPOLYGONALFACE((105,137,89));
#302=IFCINDEXEDPOLYGONALFACE((133,137,75));
#303=IFCINDEXEDPOLYGONALFACE((65,138,88));
#304=IFCINDEXEDPOLYGONALFACE((116,138,101));
#305=IFCINDEXEDPOLYGONALFACE((26,139,27));
#306=IFCINDEXEDPOLYGONALFACE((78,139,87));
#307=IFCINDEXEDPOLYGONALFACE((97,83,140));
#308=IFCINDEXEDPOLYGONALFACE((124,140,83));
#309=IFCINDEXEDPOLYGONALFACE((78,141,103));
#310=IFCINDEXEDPOLYGONALFACE((123,141,115));
#311=IFCINDEXEDPOLYGONALFACE((86,59,142));
#312=IFCINDEXEDPOLYGONALFACE((60,142,59));
#313=IFCINDEXEDPOLYGONALFACE((177,41,40));
#314=IFCINDEXEDPOLYGONALFACE((171,159,199));
#315=IFCINDEXEDPOLYGONALFACE((184,218,175));
#316=IFCINDEXEDPOLYGONALFACE((186,154,187));
#317=IFCINDEXEDPOLYGONALFACE((172,159,205));
#318=IFCINDEXEDPOLYGONALFACE((175,218,161));
#319=IFCINDEXEDPOLYGONALFACE((37,55,38));
#320=IFCINDEXEDPOLYGONALFACE((177,40,167));
#321=IFCINDEXEDPOLYGONALFACE((206,51,173));
#322=IFCINDEXEDPOLYGONALFACE((172,205,53));
#323=IFCINDEXEDPOLYGONALFACE((179,149,150));
#324=IFCINDEXEDPOLYGONALFACE((55,54,171));
#325=IFCINDEXEDPOLYGONALFACE((39,167,40));
#326=IFCINDEXEDPOLYGONALFACE((214,153,166));
#327=IFCINDEXEDPOLYGONALFACE((196,164,180));
#328=IFCINDEXEDPOLYGONALFACE((42,41,197));
#329=IFCINDEXEDPOLYGONALFACE((162,176,213));
#330=IFCINDEXEDPOLYGONALFACE((38,55,171));
#331=IFCINDEXEDPOLYGONALFACE((174,213,47));
#332=IFCINDEXEDPOLYGONALFACE((50,143,173));
#333=IFCINDEXEDPOLYGONALFACE((205,159,171));
#334=IFCINDEXEDPOLYGONALFACE((25,48,56));
#335=IFCINDEXEDPOLYGONALFACE((190,58,57));
#336=IFCINDEXEDPOLYGONALFACE((203,172,160));
#337=IFCINDEXEDPOLYGONALFACE((161,188,175));
#338=IFCINDEXEDPOLYGONALFACE((193,157,192));
#339=IFCINDEXEDPOLYGONALFACE((150,151,170));
#340=IFCINDEXEDPOLYGONALFACE((190,176,162));
#341=IFCINDEXEDPOLYGONALFACE((157,165,192));
#342=IFCINDEXEDPOLYGONALFACE((57,56,176));
#343=IFCINDEXEDPOLYGONALFACE((182,195,174));
#344=IFCINDEXEDPOLYGONALFACE((188,45,44));
#345=IFCINDEXEDPOLYGONALFACE((159,212,199));
#346=IFCINDEXEDPOLYGONALFACE((181,170,151));
#347=IFCINDEXEDPOLYGONALFACE((160,206,173));
#348=IFCINDEXEDPOLYGONALFACE((181,151,152));
#349=IFCINDEXEDPOLYGONALFACE((50,49,143));
#350=IFCINDEXEDPOLYGONALFACE((175,44,43));
#351=IFCINDEXEDPOLYGONALFACE((172,203,159));
#352=IFCINDEXEDPOLYGONALFACE((46,182,174));
#353=IFCINDEXEDPOLYGONALFACE((160,172,206));
#354=IFCINDEXEDPOLYGONALFACE((204,200,168));
#355=IFCINDEXEDPOLYGONALFACE((208,194,207));
#356=IFCINDEXEDPOLYGONALFACE((170,219,158));
#357=IFCINDEXEDPOLYGONALFACE((169,180,148));
#358=IFCINDEXEDPOLYGONALFACE((168,144,145));
#359=IFCINDEXEDPOLYGONALFACE((146,147,202));
#360=IFCINDEXEDPOLYGONALFACE((145,146,178));
#361=IFCINDEXEDPOLYGONALFACE((167,186,177));
#362=IFCINDEXEDPOLYGONALFACE((147,148,180));
#363=IFCINDEXEDPOLYGONALFACE((174,47,46));
#364=IFCINDEXEDPOLYGONALFACE((200,160,173));
#365=IFCINDEXEDPOLYGONALFACE((203,204,154));
#366=IFCINDEXEDPOLYGONALFACE((169,149,179));
#367=IFCINDEXEDPOLYGONALFACE((166,211,157));
#368=IFCINDEXEDPOLYGONALFACE((148,149,169));
#369=IFCINDEXEDPOLYGONALFACE((43,183,175));
#370=IFCINDEXEDPOLYGONALFACE((165,60,59));
#371=IFCINDEXEDPOLYGONALFACE((211,166,61));
#372=IFCINDEXEDPOLYGONALFACE((145,178,168));
#373=IFCINDEXEDPOLYGONALFACE((169,179,158));
#374=IFCINDEXEDPOLYGONALFACE((51,50,173));
#375=IFCINDEXEDPOLYGONALFACE((211,60,165));
#376=IFCINDEXEDPOLYGONALFACE((157,181,214));
#377=IFCINDEXEDPOLYGONALFACE((63,62,153));
#378=IFCINDEXEDPOLYGONALFACE((191,58,190));
#379=IFCINDEXEDPOLYGONALFACE((168,178,189));
#380=IFCINDEXEDPOLYGONALFACE((62,61,166));
#381=IFCINDEXEDPOLYGONALFACE((165,191,192));
#382=IFCINDEXEDPOLYGONALFACE((191,59,58));
#383=IFCINDEXEDPOLYGONALFACE((153,62,166));
#384=IFCINDEXEDPOLYGONALFACE((53,52,172));
#385=IFCINDEXEDPOLYGONALFACE((212,167,199));
#386=IFCINDEXEDPOLYGONALFACE((38,171,199));
#387=IFCINDEXEDPOLYGONALFACE((169,198,196));
#388=IFCINDEXEDPOLYGONALFACE((217,216,215));
#389=IFCINDEXEDPOLYGONALFACE((143,144,200));
#390=IFCINDEXEDPOLYGONALFACE((46,45,182));
#391=IFCINDEXEDPOLYGONALFACE((174,195,201));
#392=IFCINDEXEDPOLYGONALFACE((183,43,42));
#393=IFCINDEXEDPOLYGONALFACE((175,183,184));
#394=IFCINDEXEDPOLYGONALFACE((56,48,176));
#395=IFCINDEXEDPOLYGONALFACE((48,47,213));
#396=IFCINDEXEDPOLYGONALFACE((167,212,186));
#397=IFCINDEXEDPOLYGONALFACE((197,177,163));
#398=IFCINDEXEDPOLYGONALFACE((202,178,146));
#399=IFCINDEXEDPOLYGONALFACE((164,187,189));
#400=IFCINDEXEDPOLYGONALFACE((150,170,179));
#401=IFCINDEXEDPOLYGONALFACE((158,179,170));
#402=IFCINDEXEDPOLYGONALFACE((196,180,169));
#403=IFCINDEXEDPOLYGONALFACE((202,180,164));
#404=IFCINDEXEDPOLYGONALFACE((214,181,152));
#405=IFCINDEXEDPOLYGONALFACE((210,157,193));
#406=IFCINDEXEDPOLYGONALFACE((188,182,45));
#407=IFCINDEXEDPOLYGONALFACE((195,155,201));
#408=IFCINDEXEDPOLYGONALFACE((197,183,42));
#409=IFCINDEXEDPOLYGONALFACE((184,215,156));
#410=IFCINDEXEDPOLYGONALFACE((163,184,183));
#411=IFCINDEXEDPOLYGONALFACE((184,156,185));
#412=IFCINDEXEDPOLYGONALFACE((156,196,198));
#413=IFCINDEXEDPOLYGONALFACE((158,219,194));
#414=IFCINDEXEDPOLYGONALFACE((154,204,189));
#415=IFCINDEXEDPOLYGONALFACE((163,177,186));
#416=IFCINDEXEDPOLYGONALFACE((215,216,156));
#417=IFCINDEXEDPOLYGONALFACE((186,187,217));
#418=IFCINDEXEDPOLYGONALFACE((175,188,44));
#419=IFCINDEXEDPOLYGONALFACE((182,188,161));
#420=IFCINDEXEDPOLYGONALFACE((164,189,178));
#421=IFCINDEXEDPOLYGONALFACE((154,189,187));
#422=IFCINDEXEDPOLYGONALFACE((176,190,57));
#423=IFCINDEXEDPOLYGONALFACE((191,190,162));
#424=IFCINDEXEDPOLYGONALFACE((162,201,192));
#425=IFCINDEXEDPOLYGONALFACE((59,191,165));
#426=IFCINDEXEDPOLYGONALFACE((162,192,191));
#427=IFCINDEXEDPOLYGONALFACE((192,155,193));
#428=IFCINDEXEDPOLYGONALFACE((193,155,194));
#429=IFCINDEXEDPOLYGONALFACE((181,210,170));
#430=IFCINDEXEDPOLYGONALFACE((155,195,207));
#431=IFCINDEXEDPOLYGONALFACE((194,208,209));
#432=IFCINDEXEDPOLYGONALFACE((182,161,195));
#433=IFCINDEXEDPOLYGONALFACE((155,207,194));
#434=IFCINDEXEDPOLYGONALFACE((169,158,198));
#435=IFCINDEXEDPOLYGONALFACE((196,156,216));
#436=IFCINDEXEDPOLYGONALFACE((177,197,41));
#437=IFCINDEXEDPOLYGONALFACE((183,197,163));
#438=IFCINDEXEDPOLYGONALFACE((209,198,158));
#439=IFCINDEXEDPOLYGONALFACE((156,198,185));
#440=IFCINDEXEDPOLYGONALFACE((167,39,199));
#441=IFCINDEXEDPOLYGONALFACE((38,199,39));
#442=IFCINDEXEDPOLYGONALFACE((143,200,173));
#443=IFCINDEXEDPOLYGONALFACE((144,168,200));
#444=IFCINDEXEDPOLYGONALFACE((192,201,155));
#445=IFCINDEXEDPOLYGONALFACE((174,201,162));
#446=IFCINDEXEDPOLYGONALFACE((180,202,147));
#447=IFCINDEXEDPOLYGONALFACE((178,202,164));
#448=IFCINDEXEDPOLYGONALFACE((204,203,160));
#449=IFCINDEXEDPOLYGONALFACE((212,203,154));
#450=IFCINDEXEDPOLYGONALFACE((200,204,160));
#451=IFCINDEXEDPOLYGONALFACE((189,204,168));
#452=IFCINDEXEDPOLYGONALFACE((171,54,205));
#453=IFCINDEXEDPOLYGONALFACE((53,205,54));
#454=IFCINDEXEDPOLYGONALFACE((172,52,206));
#455=IFCINDEXEDPOLYGONALFACE((51,206,52));
#456=IFCINDEXEDPOLYGONALFACE((195,161,207));
#457=IFCINDEXEDPOLYGONALFACE((208,185,209));
#458=IFCINDEXEDPOLYGONALFACE((207,161,208));
#459=IFCINDEXEDPOLYGONALFACE((218,208,161));
#460=IFCINDEXEDPOLYGONALFACE((198,209,185));
#461=IFCINDEXEDPOLYGONALFACE((194,209,158));
#462=IFCINDEXEDPOLYGONALFACE((157,210,181));
#463=IFCINDEXEDPOLYGONALFACE((219,210,193));
#464=IFCINDEXEDPOLYGONALFACE((60,211,61));
#465=IFCINDEXEDPOLYGONALFACE((157,211,165));
#466=IFCINDEXEDPOLYGONALFACE((203,212,159));
#467=IFCINDEXEDPOLYGONALFACE((186,212,154));
#468=IFCINDEXEDPOLYGONALFACE((162,213,174));
#469=IFCINDEXEDPOLYGONALFACE((48,213,176));
#470=IFCINDEXEDPOLYGONALFACE((153,214,152));
#471=IFCINDEXEDPOLYGONALFACE((157,214,166));
#472=IFCINDEXEDPOLYGONALFACE((184,163,215));
#473=IFCINDEXEDPOLYGONALFACE((217,215,163));
#474=IFCINDEXEDPOLYGONALFACE((187,164,216));
#475=IFCINDEXEDPOLYGONALFACE((196,216,164));
#476=IFCINDEXEDPOLYGONALFACE((186,217,163));
#477=IFCINDEXEDPOLYGONALFACE((216,217,187));
#478=IFCINDEXEDPOLYGONALFACE((184,185,218));
#479=IFCINDEXEDPOLYGONALFACE((208,218,185));
#480=IFCINDEXEDPOLYGONALFACE((210,219,170));
#481=IFCINDEXEDPOLYGONALFACE((194,219,193));
#482=IFCINDEXEDPOLYGONALFACE((226,227,228,229,230,231,232,233,234,235,236,237,238,239,240,241,242,243,220,221,222,223,224,225));
#483=IFCINDEXEDPOLYGONALFACE((243,64,63,220));
#484=IFCINDEXEDPOLYGONALFACE((242,65,64,243));
#485=IFCINDEXEDPOLYGONALFACE((67,66,241,240));
#486=IFCINDEXEDPOLYGONALFACE((66,65,242,241));
#487=IFCINDEXEDPOLYGONALFACE((68,67,240,239));
#488=IFCINDEXEDPOLYGONALFACE((239,238,69,68));
#489=IFCINDEXEDPOLYGONALFACE((71,70,237,236));
#490=IFCINDEXEDPOLYGONALFACE((235,72,71,236));
#491=IFCINDEXEDPOLYGONALFACE((74,73,234,233));
#492=IFCINDEXEDPOLYGONALFACE((235,234,73,72));
#493=IFCINDEXEDPOLYGONALFACE((49,74,233,232));
#494=IFCINDEXEDPOLYGONALFACE((237,70,69,238));
#495=IFCINDEXEDPOLYGONALFACE((231,143,49,232));
#496=IFCINDEXEDPOLYGONALFACE((230,144,143,231));
#497=IFCINDEXEDPOLYGONALFACE((228,227,147,146));
#498=IFCINDEXEDPOLYGONALFACE((229,145,144,230));
#499=IFCINDEXEDPOLYGONALFACE((146,145,229,228));
#500=IFCINDEXEDPOLYGONALFACE((227,226,148,147));
#501=IFCINDEXEDPOLYGONALFACE((150,149,225,224));
#502=IFCINDEXEDPOLYGONALFACE((223,151,150,224));
#503=IFCINDEXEDPOLYGONALFACE((153,152,222,221));
#504=IFCINDEXEDPOLYGONALFACE((223,222,152,151));
#505=IFCINDEXEDPOLYGONALFACE((63,153,221,220));
#506=IFCINDEXEDPOLYGONALFACE((225,149,148,226));
#507=IFCCARTESIANPOINTLIST3D(((-1.0572916666666272,-0.098958333333360987,-6.4477722164595905E-015),(-1.0572916666666274,-0.095586409893216956,0.025612301338263227),(-1.0572916666666283,-0.085700430582863252,0.049479166666659642),(-1.0572916666666299,-0.069974108554947137,0.069974108554911915),(-1.0572916666666319,-0.049479166666695197,0.085700430582828432),(-1.0572916666666343,-0.025612301338298938,0.09558640989318265),(-1.0572916666666368,-2.8717443537485104E-014,0.098958333333327209),(-1.0572916666666392,0.025612301338241574,0.095586409893183219),(-1.0572916666666416,0.049479166666638041,0.085700430582829515),(-1.0572916666666436,0.069974108554890307,0.069974108554913469),(-1.0572916666666452,0.085700430582806839,0.049479166666661578),(-1.0572916666666461,0.095586409893161098,0.025612301338265343),(-1.0572916666666463,0.098958333333305698,-6.1339822110539899E-015),(-1.0572916666666461,0.095586409893161417,-0.025612301338276383),(-1.0572916666666452,0.085700430582807463,-0.049479166666672757),(-1.0572916666666436,0.069974108554891182,-0.069974108554924849),(-1.0572916666666416,0.049479166666639117,-0.085700430582841172),(-1.0572916666666392,0.025612301338242764,-0.095586409893195168),(-1.0572916666666368,-2.7506654878683843E-014,-0.098958333333339477),(-1.0572916666666343,-0.025612301338297769,-0.095586409893195237),(-1.0572916666666319,-0.049479166666694142,-0.085700430582841325),(-1.0572916666666299,-0.069974108554946263,-0.069974108554925071),(-1.0572916666666283,-0.0857004305828626,-0.04947916666667302),(-1.0572916666666274,-0.095586409893216623,-0.025612301338276692),(-0.89062499999984202,-0.098958333333344778,-6.4477722164595905E-015),(-0.89062499999984246,-0.095586409893200761,0.025612301338263185),(-0.89062499999984368,-0.085700430582847043,0.049479166666659642),(-0.89062499999984568,-0.069974108554930928,0.069974108554911915),(-0.89062499999984834,-0.049479166666678988,0.085700430582828432),(-0.89062499999985145,-0.025612301338282812,0.095586409893182636),(-0.89062499999985478,-1.250818737794662E-014,0.098958333333327209),(-0.89062499999985811,0.025612301338257783,0.095586409893183219),(-0.89062499999986111,0.049479166666654174,0.085700430582829557),(-0.89062499999986378,0.069974108554906517,0.069974108554913469),(-0.89062499999986589,0.085700430582823048,0.049479166666661578),(-0.89062499999986711,0.095586409893177307,0.025612301338265343),(-0.89062499999986444,0.098958333333321907,-5.4885426253902425E-015),(-0.89062499999986711,0.095586409893177626,-0.025612301338276404),(-0.89062499999986589,0.085700430582823686,-0.049479166666672736),(-0.89062499999986378,0.069974108554907391,-0.069974108554924849),(-0.89062499999986111,0.049479166666655305,-0.085700430582841172),(-0.89062499999985811,0.025612301338258973,-0.095586409893195168),(-0.89062499999985478,-1.13193718831744E-014,-0.098958333333339477),(-0.89062499999985145,-0.025612301338281539,-0.095586409893195237),(-0.89062499999984834,-0.049479166666677933,-0.085700430582841325),(-0.89062499999984568,-0.069974108554930053,-0.069974108554925071),(-0.89062499999984368,-0.08570043058284639,-0.04947916666667302),(-0.89062499999984246,-0.095586409893200414,-0.025612301338276734),(-0.098958333333303172,0.89062499999998745,-5.4885426253902425E-015),(-0.11880706952268982,0.714462593951253,-5.4885426253902425E-015),(-0.17735797957720911,0.54713370653194726,-5.4885426253902425E-015),(-0.27167507637941934,0.39702890686185838,-5.4885426253902425E-015),(-0.39702890686176051,0.27167507637950117,-5.4885426253902425E-015),(-0.54713370653183757,0.17735797957727173,-5.4885426253902425E-015),(-0.71446259395113565,0.11880706952273112,-5.4885426253902425E-015),(-0.69756686883806662,-0.079943767065686511,-6.4477722164595905E-015),(-0.51192785338859492,-0.023630787380935714,-6.4477722164595905E-015),(-0.34084195690758912,0.067816529492305544,-6.4477722164595905E-015),(-0.19088391445073749,0.19088391445084563,-6.4477722164595905E-015),(-0.067816529492216615,0.34084195690771291,-6.4477722164595905E-015),(0.023630787381002882,0.51192785338873026,-6.4477722164595905E-015),(0.07994376706572992,0.69756686883820929,-6.4477722164595905E-015),(0.098958333333363568,0.89062499999998757,-6.4477722164595905E-015),(0.095586409893219648,0.89062499999998757,0.025612301338262592),(0.085700430582866138,0.89062499999998734,0.049479166666659073),(0.069974108554950121,0.89062499999998757,0.069974108554911485),(0.049479166666698382,0.89062499999998745,0.085700430582828085),(0.025612301338302168,0.89062499999998768,0.09558640989318247),(3.1974423109204508E-014,0.89062499999998745,0.098958333333327209),(-0.02561230133823833,0.89062499999998757,0.095586409893183386),(-0.049479166666634877,0.89062499999998779,0.085700430582829862),(-0.069974108554887282,0.89062499999998757,0.069974108554913955),(-0.085700430582803966,0.89062499999998779,0.049479166666662112),(-0.095586409893158364,0.89062499999998757,0.02561230133826602),(-0.31268972284943719,0.31268972279269724,0.066480835769504046),(-0.21577134328939174,0.21577134323336555,0.075677832655106664),(-0.29637584028579278,0.23925543229812707,0.098556041165833608),(-0.43782692991008793,0.023826382931006251,0.04657151267959897),(-0.023826382836432458,0.43782693010711088,0.046571512693484744),(-0.46096377168938141,0.21693170118095817,0.037492475315888181),(-0.21698771539620731,0.46103620036445181,0.037281292146472578),(-0.044937264228669949,0.50194971983545211,0.090467849322644692),(-0.50194971982435155,0.044937264243278374,0.090467849326469757),(-0.12242275328249475,0.51525325531853694,0.09232648221648565),(-0.54718838651343482,0.10784799413621682,0.092247232799406442),(-0.26667522013165468,0.12755726564769398,0.027482883523826107),(-0.61295216892320359,-0.055146375061520647,0.027482883529684341),(0.055146375092411493,0.61295216903227634,0.027482883533486158),(-0.61193875482217708,0.12664611922172742,0.061656320371454701),(-0.12701952460189747,0.61090465174531139,0.061661755262103442),(-0.62216472343019191,0.14303232174349012,0.022818887074430413),(-0.32896125446578428,0.32896125444862734,0.022729968496214489),(-0.14304357888645769,0.62219559602153462,0.022729968496352383),(0.027617739232626892,0.63906613696069869,0.077565072350818012),(-0.020112960961336523,0.64294408819296345,0.097899579329614336),(-0.63906613697782111,-0.027617739231904026,0.077565072354944337),(-0.64294408820159787,0.0201129609644356,0.097899579330400471),(-0.14487010376170573,0.37843385368757754,0.097951625411188473),(-0.68149243812122162,0.085912368261264138,0.079311671633636019),(-0.08598312788172513,0.68121460705077375,0.079312751666833867),(0.056313278250400223,0.68081756726899212,0.059226656667163341),(-0.035674889361047457,0.6865362978651518,0.098269836818544995),(-0.68081756730798104,-0.056313278255219479,0.059226656672135669),(-0.68653629788454529,0.035674889360637008,0.098269836818060022),(-0.46421209963304161,0.18066439537112577,0.076763356046186268),(-0.27115201306229086,0.3208412956983886,0.085998176527759429),(-0.2275797612442555,0.17746441119733347,0.053663264871194258),(-0.47677528144244452,0.10360078664140315,0.098948089492375033),(-0.31376438462194323,0.18712003267465316,0.097088080471485483),(-0.17549327609291299,0.47357875880948608,0.076501340287550859),(-0.1809824766348892,0.29025542257406789,0.09098752185584584),(0.02096696141452592,0.70896163785728983,0.090995492405652162),(-0.70896163784722965,-0.020966961408599216,0.090995492407289699),(-0.055153465594275475,0.71476354309604706,0.091843249827430543),(-0.38542325781519149,0.070876706552132518,0.067572917889766937),(-0.012793393337417025,0.49050325853806931,0.065594217395839205),(-0.10455422801917036,0.3230834652898863,0.059707146154485677),(-0.093230549460849188,0.36423152093833178,0.07474980061422562),(-0.12255367152339602,0.28207198006730039,0.042622548685918048),(-0.04128235605063435,0.38855141071503974,0.02395088989590494),(-0.62323549691725133,0.13490736477973286,0.043268429142547707),(-0.13493674152503299,0.62320657749515007,0.043231288717994386),(-0.36624102443574658,0.10377335052340486,0.082299049230049881),(-0.3460709232678244,0.13899672245306827,0.091562793256646097),(-0.73367550197316445,0.051508769741671068,0.091798354489246461),(-0.083316726947577191,0.51641355406660761,0.098955064629345321),(-0.17568976386303481,0.36912144125032942,0.098794235676795281),(-0.22774838574781486,0.338408809453418,0.094953027335559159),(-0.37172979454851529,0.21018628979994292,0.09259633262547888),(-0.1210391071655682,0.47959648070657485,0.097279031194077242),(-0.45172209732839241,0.13899280469407282,0.096868372612749151),(-0.46653642539647872,0.22022915867383952,0.017756603246534164),(-0.32406688559499841,0.3244224369995764,0.041916905685927715),(-0.23739440082050667,0.41466029367468676,0.054822777001873886),(-0.22028674927906033,0.46645053895270844,0.017741531950428876),(-0.42848806791201394,0.01790380140448633,0.02006076673341092),(-0.44561329259763444,0.21411517650303102,0.057031352950692109),(0.043021509011539005,0.59672777819340705,0.04489927022270105),(-0.71887630828913729,-0.074024796536139914,0.042860694737023301),(-0.47046061235455566,0.083651044811180575,0.097081824368081659),(-0.54104734572257873,-0.0075201501564635675,0.066643065609148691),(-0.14260840819044673,0.24771582426305172,0.025138229962494776),(-0.095586409893158808,0.89062499999998757,-0.0256123013382764),(-0.085700430582804854,0.89062499999998779,-0.049479166666672784),(-0.069974108554888614,0.89062499999998757,-0.069974108554924849),(-0.049479166666636543,0.89062499999998779,-0.085700430582841172),(-0.025612301338240218,0.89062499999998757,-0.095586409893195168),(3.0087043967341742E-014,0.89062499999998745,-0.098958333333339477),(0.025612301338300392,0.89062499999998768,-0.095586409893195223),(0.049479166666696717,0.89062499999998745,-0.085700430582841325),(0.069974108554948788,0.89062499999998757,-0.069974108554925071),(0.085700430582865139,0.89062499999998734,-0.04947916666667302),(0.095586409893219204,0.89062499999998757,-0.025612301338276692),(-0.31268972935921657,0.31268971588227934,-0.06648083608187362),(-0.28171988893668354,0.14154667879011162,-0.064886291977725538),(-0.23925543437659547,0.29637583738554152,-0.098556041203761297),(-0.023582324146855682,0.43753102848583542,-0.045902914412024542),(-0.086030695563136694,0.42178092422939178,-0.090244650438001492),(-0.4609637756682381,0.21693169848828309,-0.03749247563528222),(-0.21698771102510606,0.46103620580870708,-0.037281294010669999),(-0.4768028371685904,0.056781712821926678,-0.090399305007840575),(-0.43389152745333426,0.020816650446926044,-0.03693620172685607),(-0.51525325673794375,0.1224227522003376,-0.092326482351186692),(-0.10784799462202743,0.54718838459440033,-0.092247232926062794),(-0.12750175244297257,0.26660306683551038,-0.027174364575356637),(0.05520224867957424,0.61282780835473238,-0.027174364578133298),(-0.6119387553971517,0.12664611873270526,-0.061656320700845542),(-0.12701952141737183,0.61090465961033913,-0.061661755619765106),(-0.030164326306442835,0.60932558753593569,-0.097867991308787122),(0.01773075479031494,0.60485942869173304,-0.077431413941811203),(-0.6221647252568826,0.14303232109344266,-0.02281888705094455),(-0.32896126016581728,0.32896124813779615,-0.022729970326292724),(-0.14304357744777274,0.62219559968096838,-0.022729968993723051),(-0.61919113037260387,-0.040760374113055775,-0.058919212927478419),(-0.63294750376070652,0.022953783746761602,-0.097890272680335191),(-0.61131018950364413,-0.055815249083158269,-0.023322373391109003),(-0.68149243866323517,0.085912367895349728,-0.079311671796180608),(-0.085983127020423211,0.68121460949467827,-0.079312751829513098),(0.013764184654416534,0.67512434511720909,-0.090912757164858027),(-0.037360602593559222,0.67941217227500306,-0.098275161907670799),(0.054685236028585105,0.67347895166463756,-0.059190352588379978),(-0.67730373373884645,-0.037055186295729903,-0.077712470217441945),(-0.68469906264055902,0.03610362405080858,-0.098271211079292722),(-0.440337378848209,0.12551073016148495,-0.098917517136951183),(-0.27129602192914504,0.21812382618532611,-0.096100492946094906),(-0.46421210328633516,0.18066439276814539,-0.076763356331277399),(-0.26370157571519492,0.32687837479580328,-0.086807663624695941),(-0.69421319437249074,-0.017989314256744771,-0.090959562535003688),(-0.17615779468378645,0.47234726189760712,-0.076540318365345431),(-0.42776259187949889,0.017687113190286374,-0.017297745732816536),(-0.2752294069030905,0.12056074087179292,-0.027262596281884641),(-0.20263708703874295,0.19587986867302776,-0.046922378175485946),(-0.10825972342737922,0.32463785499468667,-0.06455497835553213),(-0.19985357416437943,0.2434418572913154,-0.081620697657579497),(-0.46797163581808171,0.030059814398582074,-0.071772257938313599),(-0.10742011286384845,0.47392029100717925,-0.09889764861877369),(-0.71476354417904941,0.055153465198219509,-0.091843249893436424),(-0.11161280126159556,0.42128424539257431,-0.097146861365815407),(-0.62323550074958245,0.13490736329830399,-0.043268429385847816),(-0.13493673820895757,0.62320658605943779,-0.043231289271991415),(-0.4160768279626324,0.041925558474738001,-0.055784506692194688),(-0.051508769742186877,0.73367550111983526,-0.091798354552209485),(-0.32406688598681344,0.32442243502361168,-0.041916908080362102),(-0.23739439621143865,0.41466029804804394,-0.054822778729565064),(-0.46647331112582974,0.22021080003053639,-0.018024571146606206),(-0.22028668780016569,0.4664503820866856,-0.01774227729089577),(-0.33309866440264313,0.12020982851921591,-0.078417166243113318),(-0.30949893175850884,0.16045917124965925,-0.089334739600364463),(-0.18913095418708525,0.28152862153145208,-0.091203023587250714),(-0.0086806780737098688,0.49756117368054914,-0.064622247784971304),(-0.017896040046277095,0.42846498244446418,-0.019975257590665076),(-0.44561329746146794,0.21411517325296348,-0.057031353010663997),(-0.70049253634402298,-0.070898370730491211,-0.042184487202047372),(0.073769088765244795,0.71739302510753633,-0.042841114921170195),(-0.3690169383467673,0.19661573418201816,-0.096377620875329653),(-0.24752098388344146,0.31691172584267269,-0.094672538150766206),(-0.37757501849034347,0.21338033768768605,-0.090070078586622984),(-0.44663992912600942,0.096216065447716104,-0.097031190041643858),(-0.067590066996357168,0.41453704266413577,-0.078549987209026201),(0.098958333333363596,1.0572916666666541,-6.4038258884015119E-015),(0.095586409893219232,1.0572916666666541,-0.025612301338276692),(0.085700430582865209,1.0572916666666541,-0.04947916666667302),(0.069974108554948872,1.0572916666666541,-0.069974108554925071),(0.049479166666696751,1.0572916666666541,-0.085700430582841325),(0.025612301338300378,1.0572916666666541,-0.095586409893195237),(3.0115678986552961E-014,1.0572916666666541,-0.098958333333339477),(-0.025612301338240155,1.0572916666666541,-0.095586409893195168),(-0.049479166666636508,1.0572916666666541,-0.085700430582841172),(-0.069974108554888573,1.0572916666666541,-0.069974108554924849),(-0.085700430582804854,1.0572916666666541,-0.049479166666672757),(-0.095586409893158808,1.0572916666666541,-0.02561230133827639),(-0.098958333333303089,1.0572916666666541,-4.9611866886932924E-015),(-0.095586409893158489,1.0572916666666541,0.025612301338265343),(-0.08570043058280423,1.0572916666666541,0.049479166666661578),(-0.069974108554887698,1.0572916666666541,0.069974108554913469),(-0.049479166666635432,1.0572916666666541,0.085700430582829515),(-0.025612301338238965,1.0572916666666541,0.095586409893183219),(3.1326467645354222E-014,1.0572916666666541,0.098958333333327209),(0.025612301338301547,1.0572916666666541,0.09558640989318265),(0.049479166666697806,1.0572916666666541,0.085700430582828432),(0.069974108554949746,1.0572916666666541,0.069974108554911915),(0.085700430582865861,1.0572916666666541,0.049479166666659642),(0.095586409893219579,1.0572916666666541,0.025612301338263185)));
#508=IFCPOLYGONALFACESET(#507,.T.,(#115,#116,#117,#118,#119,#120,#121,#122,#123,#124,#125,#126,#127,#128,#129,#130,#131,#132,#133,#134,#135,#136,#137,#138,#139,#140,#141,#142,#143,#144,#145,#146,#147,#148,#149,#150,#151,#152,#153,#154,#155,#156,#157,#158,#159,#160,#161,#162,#163,#164,#165,#166,#167,#168,#169,#170,#171,#172,#173,#174,#175,#176,#177,#178,#179,#180,#181,#182,#183,#184,#185,#186,#187,#188,#189,#190,#191,#192,#193,#194,#195,#196,#197,#198,#199,#200,#201,#202,#203,#204,#205,#206,#207,#208,#209,#210,#211,#212,#213,#214,#215,#216,#217,#218,#219,#220,#221,#222,#223,#224,#225,#226,#227,#228,#229,#230,#231,#232,#233,#234,#235,#236,#237,#238,#239,#240,#241,#242,#243,#244,#245,#246,#247,#248,#249,#250,#251,#252,#253,#254,#255,#256,#257,#258,#259,#260,#261,#262,#263,#264,#265,#266,#267,#268,#269,#270,#271,#272,#273,#274,#275,#276,#277,#278,#279,#280,#281,#282,#283,#284,#285,#286,#287,#288,#289,#290,#291,#292,#293,#294,#295,#296,#297,#298,#299,#300,#301,#302,#303,#304,#305,#306,#307,#308,#309,#310,#311,#312,#313,#314,#315,#316,#317,#318,#319,#320,#321,#322,#323,#324,#325,#326,#327,#328,#329,#330,#331,#332,#333,#334,#335,#336,#337,#338,#339,#340,#341,#342,#343,#344,#345,#346,#347,#348,#349,#350,#351,#352,#353,#354,#355,#356,#357,#358,#359,#360,#361,#362,#363,#364,#365,#366,#367,#368,#369,#370,#371,#372,#373,#374,#375,#376,#377,#378,#379,#380,#381,#382,#383,#384,#385,#386,#387,#388,#389,#390,#391,#392,#393,#394,#395,#396,#397,#398,#399,#400,#401,#402,#403,#404,#405,#406,#407,#408,#409,#410,#411,#412,#413,#414,#415,#416,#417,#418,#419,#420,#421,#422,#423,#424,#425,#426,#427,#428,#429,#430,#431,#432,#433,#434,#435,#436,#437,#438,#439,#440,#441,#442,#443,#444,#445,#446,#447,#448,#449,#450,#451,#452,#453,#454,#455,#456,#457,#458,#459,#460,#461,#462,#463,#464,#465,#466,#467,#468,#469,#470,#471,#472,#473,#474,#475,#476,#477,#478,#479,#480,#481,#482,#483,#484,#485,#486,#487,#488,#489,#490,#491,#492,#493,#494,#495,#496,#497,#498,#499,#500,#501,#502,#503,#504,#505,#506),$);
#509=IFCSHAPEREPRESENTATION(#24,'Body','Tessellation',(#508));
#510=IFCAXIS2PLACEMENT3D(#19,$,$);
#511=IFCREPRESENTATIONMAP(#510,#509);
#512=IFCCABLECARRIERFITTINGTYPE('32xvq5A2n68wmfrqZGZFSp',#6,'Conduit Elbow - without Fittings - RNC:Standard',$,$,$,(#511),'500408',$,.NOTDEFINED.);
#513=IFCMATERIAL('<Unnamed>',$,$);
#514=IFCCARTESIANTRANSFORMATIONOPERATOR3D($,$,#19,1.,$);
#515=IFCMAPPEDITEM(#511,#514);
#516=IFCSHAPEREPRESENTATION(#24,'Body','MappedRepresentation',(#515));
#517=IFCPRODUCTDEFINITIONSHAPE($,$,(#516));
#518=IFCCARTESIANPOINT((26.426317800627878,5.9886583698531712,9.));
#519=IFCAXIS2PLACEMENT3D(#518,$,$);
#520=IFCLOCALPLACEMENT(#33,#519);
#521=IFCCABLECARRIERFITTING('32xvq5A2n68wmfrqZGZFSn',#6,'Conduit Elbow - without Fittings - RNC:Standard:854433',$,$,#520,#517,'854433',.NOTDEFINED.);
#522=IFCPROPERTYSINGLEVALUE('Reference',$,IFCIDENTIFIER('Standard'),$);
#523=IFCPROPERTYSET('1pZducdyHtHSfy0wxaaSdw',#6,'Pset_CableCarrierFittingTypeCommon',$,(#522));
#524=IFCPROPERTYSET('2dNO$68woHFR8ZUli6S1sj',#6,'Pset_EnvironmentalImpactIndicators',$,(#522));
#525=IFCRELDEFINESBYPROPERTIES('3qQ2EqYx2xjAuzCvMkWtCc',#6,$,$,(#521),#523);
#526=IFCRELDEFINESBYPROPERTIES('2HwbTjOgQkvzU7ugg39mj$',#6,$,$,(#521),#524);
#527=IFCMAPPEDITEM(#511,#514);
#528=IFCSHAPEREPRESENTATION(#24,'Body','MappedRepresentation',(#527));
#529=IFCPRODUCTDEFINITIONSHAPE($,$,(#528));
#530=IFCCARTESIANPOINT((26.42631780062786,41.988658369853113,9.));
#531=IFCDIRECTION((-1.,0.,0.));
#532=IFCAXIS2PLACEMENT3D(#530,#54,#531);
#533=IFCLOCALPLACEMENT(#33,#532);
#534=IFCCABLECARRIERFITTING('32xvq5A2n68wmfrqZGZFSx',#6,'Conduit Elbow - without Fittings - RNC:Standard:854443',$,$,#533,#529,'854443',.NOTDEFINED.);
#535=IFCPROPERTYSET('0iYH3AyhC5HDur5exydkyN',#6,'Pset_CableCarrierFittingTypeCommon',$,(#522));
#536=IFCPROPERTYSET('3LXpNbw6vYiDWBcTxQAGSd',#6,'Pset_EnvironmentalImpactIndicators',$,(#522));
#537=IFCRELDEFINESBYPROPERTIES('3CcQJs94oHyaNQCIgL6Jgb',#6,$,$,(#534),#535);
#538=IFCRELDEFINESBYPROPERTIES('1Mqq5nlROySzL02x6akdRe',#6,$,$,(#534),#536);
#539=IFCCARTESIANPOINT((-69.573682199372101,5.9886583698534537,9.));
#540=IFCAXIS2PLACEMENT3D(#539,#531,#80);
#541=IFCLOCALPLACEMENT(#46,#540);
#542=IFCDISTRIBUTIONPORT('0BtA2MLymfG1dSaFBEEbUc',#6,'Port_854413_0','Flow',$,#541,$,.SOURCEANDSINK.,.CABLECARRIER.,.CONVEYING.);
#543=IFCCARTESIANPOINT((25.36902613396127,5.9886583698531162,9.));
#544=IFCAXIS2PLACEMENT3D(#543,#51,#52);
#545=IFCLOCALPLACEMENT(#46,#544);
#546=IFCDISTRIBUTIONPORT('3hvdojReTI3XkWdrruCVbc',#6,'Port_854413_1','Flow',$,#545,$,.SOURCEANDSINK.,.CABLECARRIER.,.CONVEYING.);
#547=IFCCARTESIANPOINT((-1.0572916666666146,-0.,-0.));
#548=IFCAXIS2PLACEMENT3D(#547,#531,#52);
#549=IFCLOCALPLACEMENT(#520,#548);
#550=IFCDISTRIBUTIONPORT('1iWvE$uAmMC2zG5mx_xALE',#6,'Port_854433_1','Flow',$,#549,$,.SOURCEANDSINK.,.CABLECARRIER.,.CONVEYING.);
#551=IFCRELCONNECTSPORTS('0cwHDAMQTmm8cD9pAyAX5_',#6,'3hvdojReTI3XkWdrruCVbc|1iWvE$uAmMC2zG5mx_xALE','Flow',#546,#550,$);
#552=IFCCARTESIANPOINT((26.426317800627931,7.0459500365197982,9.));
#553=IFCAXIS2PLACEMENT3D(#552,#52,#531);
#554=IFCLOCALPLACEMENT(#75,#553);
#555=IFCDISTRIBUTIONPORT('3_IelmdKdrt4jfGkqx18Tv',#6,'Port_854424_0','Flow',$,#554,$,.SOURCEANDSINK.,.CABLECARRIER.,.CONVEYING.);
#556=IFCCARTESIANPOINT((0.,1.057291666666627,-0.));
#557=IFCAXIS2PLACEMENT3D(#556,#80,#531);
#558=IFCLOCALPLACEMENT(#520,#557);
#559=IFCDISTRIBUTIONPORT('0oL34MyvIOTaHlXuPh9opK',#6,'Port_854433_2','Flow',$,#558,$,.SOURCEANDSINK.,.CABLECARRIER.,.CONVEYING.);
#560=IFCRELCONNECTSPORTS('1MEmcxGwwsRX6UhU7qB9MB',#6,'3_IelmdKdrt4jfGkqx18Tv|0oL34MyvIOTaHlXuPh9opK','Flow',#555,#559,$);
#561=IFCCARTESIANPOINT((26.426317800627807,40.931366703186484,9.));
#562=IFCAXIS2PLACEMENT3D(#561,#80,#51);
#563=IFCLOCALPLACEMENT(#75,#562);
#564=IFCDISTRIBUTIONPORT('28D88QDHlo0ZJcvHSyNx83',#6,'Port_854424_1','Flow',$,#563,$,.SOURCEANDSINK.,.CABLECARRIER.,.CONVEYING.);
#565=IFCCARTESIANPOINT((0.,1.0572916666666288,-0.));
#566=IFCAXIS2PLACEMENT3D(#565,#80,#531);
#567=IFCLOCALPLACEMENT(#533,#566);
#568=IFCDISTRIBUTIONPORT('1XDc_6l4lCpEHimccxY9I8',#6,'Port_854443_2','Flow',$,#567,$,.SOURCEANDSINK.,.CABLECARRIER.,.CONVEYING.);
#569=IFCRELCONNECTSPORTS('0EbFLeDzIyvMBYozz2CR7I',#6,'28D88QDHlo0ZJcvHSyNx83|1XDc_6l4lCpEHimccxY9I8','Flow',#564,#568,$);
#570=IFCCARTESIANPOINT((27.483609467294475,41.988658369853169,9.));
#571=IFCAXIS2PLACEMENT3D(#570,#531,#80);
#572=IFCLOCALPLACEMENT(#96,#571);
#573=IFCDISTRIBUTIONPORT('2tmKJJ1ZGfaRtFR48xgKuP',#6,'Port_854431_0','Flow',$,#572,$,.SOURCEANDSINK.,.CABLECARRIER.,.CONVEYING.);
#574=IFCCARTESIANPOINT((-1.0572916666666146,-0.,-0.));
#575=IFCAXIS2PLACEMENT3D(#574,#531,#52);
#576=IFCLOCALPLACEMENT(#533,#575);
#577=IFCDISTRIBUTIONPORT('3yPoC9inA3aFPYG$Drxziv',#6,'Port_854443_1','Flow',$,#576,$,.SOURCEANDSINK.,.CABLECARRIER.,.CONVEYING.);
#578=IFCRELCONNECTSPORTS('3HJ0IubYUaiOkw4dzvM57n',#6,'2tmKJJ1ZGfaRtFR48xgKuP|3yPoC9inA3aFPYG$Drxziv','Flow',#573,#577,$);
#579=IFCCARTESIANPOINT((82.426317800627828,41.988658369853226,9.));
#580=IFCAXIS2PLACEMENT3D(#579,#51,#52);
#581=IFCLOCALPLACEMENT(#96,#580);
#582=IFCDISTRIBUTIONPORT('0AEQRL9VUeijsftHNo_7sx',#6,'Port_854431_1','Flow',$,#581,$,.SOURCEANDSINK.,.CABLECARRIER.,.CONVEYING.);
#583=IFCRELNESTS('0h7fK6LbUN2GDkDAU0FtnL',#6,'NestedPorts','Flow',#63,(#542,#546));
#584=IFCRELNESTS('0jqrgfon$Jkpq9kIlaFaxD',#6,'NestedPorts','Flow',#521,(#550,#559));
#585=IFCRELNESTS('2gX6_YdjD$VMPR4IkY9GYm',#6,'NestedPorts','Flow',#85,(#555,#564));
#586=IFCRELNESTS('2ICWpfnS4TuVH_eh7Zauwa',#6,'NestedPorts','Flow',#534,(#568,#577));
#587=IFCRELNESTS('2lL4amwjMk4gfBZmYCBi7P',#6,'NestedPorts','Flow',#105,(#573,#582));
#588=IFCPROPERTYSINGLEVALUE('Reference',$,IFCIDENTIFIER('1/4" Head'),$);
#589=IFCPROPERTYSINGLEVALUE('AboveGround',$,IFCLOGICAL(.U.),$);
#590=IFCPROPERTYSET('16L50AfyZF4hYq5TGET4H4',#6,'Pset_BuildingStoreyCommon',$,(#588,#589));
#591=IFCRELDEFINESBYPROPERTIES('2VdfSfkgzGoZi_3SgzE8$0',#6,$,$,(#34),#590);
#592=IFCRELCONTAINEDINSPATIALSTRUCTURE('2JF4e6axWHqu3u0C5FZlmi',#6,$,$,(#63,#85,#105,#521,#534),#34);
#593=IFCPROPERTYSET('1n34enW33Z_3Qq2Pm1kjQZ',#6,'Pset_BuildingStoreyCommon',$,(#588,#589));
#594=IFCRELDEFINESBYPROPERTIES('36oM8gyLQ5_Z6XoGK5uP1E',#6,$,$,(#38),#593);
#595=IFCRELAGGREGATES('3zx5o3x2QNZQ8o6UJYuM0x',#6,$,$,#27,(#41));
#596=IFCRELAGGREGATES('2Jy9Ppi0llbDpFcSslUQ5_',#6,$,$,#41,(#31));
#597=IFCRELAGGREGATES('1yhDISh1T5aQqAoygxGIhP',#6,$,$,#31,(#34,#38));
#598=IFCPROPERTYSINGLEVALUE('NumberOfStoreys',$,IFCINTEGER(2),$);
#599=IFCPROPERTYSINGLEVALUE('IsLandmarked',$,IFCLOGICAL(.U.),$);
#600=IFCPROPERTYSET('2vemDLwwkHYRTRzBuULXjj',#6,'Pset_BuildingCommon',$,(#42,#598,#599));
#601=IFCRELDEFINESBYPROPERTIES('3yjJmaETxCxo2KUcKzrpsg',#6,$,$,(#31),#600);
#602=IFCRELASSOCIATESMATERIAL('1ywHhvyqOJiYheOP2ICsxw',#6,$,$,(#512,#521,#534),#513);
#603=IFCRELDEFINESBYTYPE('3Go5W9WlcGCbw_KkOizV2P',#6,$,$,(#63,#85,#105),#62);
#604=IFCRELDEFINESBYTYPE('3W$sKjuAsSxe0oZCOnWjQ4',#6,$,$,(#521,#534),#512);
#605=IFCPRESENTATIONLAYERASSIGNMENT('E-POWR-CNDT',$,(#60,#83,#103,#509,#516,#528),$);
#606=IFCUNITASSIGNMENT((#10,#14,#18,#59));
ENDSEC;

END-ISO-10303-21;