ISO-10303-21;
HEADER;
FILE_DESCRIPTION(('ViewDefinition [CoordinationView_V2.0]','RevitIdentifiers [ContentGUID: fb5dd41d-2734-46c0-8d5b-0cedab4554cd, VersionGUID: c2ef9d05-282c-4623-ac29-d748d081fe90, NumberOfSaves: 1]','CoordinateReference [CoordinateBase: Shared Coordinates]'),'2;1');
FILE_NAME('conduit_2x3.ifc','2026-06-24T11:00:24-08:00',(''),(''),'ODA SDAI 25.12','Autodesk - Revit 27.1.0.45 (ENU) - 27.1.0.45','');
FILE_SCHEMA(('IFC2X3'));
ENDSEC;

DATA;
#1=IFCORGANIZATION($,'Autodesk Revit 2027 (ENU)',$,$,$);
#2=IFCAPPLICATION(#1,'2027','Autodesk Revit 2027 (ENU)','Revit');
#3=IFCPERSON($,'','pkhuat28',$,$,$,$,$);
#4=IFCORGANIZATION($,'','',$,$);
#5=IFCPERSONANDORGANIZATION(#3,#4,$);
#6=IFCOWNERHISTORY(#5,#2,$,.NOCHANGE.,$,$,$,1782323466);
#7=IFCSIUNIT(*,.LENGTHUNIT.,$,.METRE.);
#8=IFCDIMENSIONALEXPONENTS(1,0,0,0,0,0,0);
#9=IFCMEASUREWITHUNIT(IFCLENGTHMEASURE(0.30480000000000002),#7);
#10=IFCCONVERSIONBASEDUNIT(#8,.LENGTHUNIT.,'FOOT',#9);
#11=IFCSIUNIT(*,.AREAUNIT.,$,.SQUARE_METRE.);
#12=IFCDIMENSIONALEXPONENTS(2,0,0,0,0,0,0);
#13=IFCMEASUREWITHUNIT(IFCAREAMEASURE(0.092903040000000006),#11);
#14=IFCCONVERSIONBASEDUNIT(#12,.AREAUNIT.,'SQUARE FOOT',#13);
#15=IFCSIUNIT(*,.VOLUMEUNIT.,$,.CUBIC_METRE.);
#16=IFCDIMENSIONALEXPONENTS(3,0,0,0,0,0,0);
#17=IFCMEASUREWITHUNIT(IFCVOLUMEMEASURE(0.028316846592000004),#15);
#18=IFCCONVERSIONBASEDUNIT(#16,.VOLUMEUNIT.,'CUBIC FOOT',#17);
#19=IFCCARTESIANPOINT((0.,0.,0.));
#20=IFCAXIS2PLACEMENT3D(#19,$,$);
#21=IFCDIRECTION((0.,1.));
#22=IFCGEOMETRICREPRESENTATIONCONTEXT($,'Model',3,0.0001,#20,#21);
#23=IFCGEOMETRICREPRESENTATIONSUBCONTEXT('Axis','Model',*,*,*,*,#22,$,.GRAPH_VIEW.,$);
#24=IFCGEOMETRICREPRESENTATIONSUBCONTEXT('Body','Model',*,*,*,*,#22,$,.MODEL_VIEW.,$);
#25=IFCGEOMETRICREPRESENTATIONSUBCONTEXT('Box','Model',*,*,*,*,#22,$,.MODEL_VIEW.,$);
#26=IFCGEOMETRICREPRESENTATIONSUBCONTEXT('FootPrint','Model',*,*,*,*,#22,$,.MODEL_VIEW.,$);
#27=IFCPROJECT('3xNTGT9pH6m8rR3ErKkgiz',#6,'Project Number',$,$,'Project Name','Project Status',(#22),#467);
#28=IFCPOSTALADDRESS($,$,$,$,('Enter address here'),$,'','Boston','','MA');
#29=IFCAXIS2PLACEMENT3D(#19,$,$);
#30=IFCLOCALPLACEMENT(#40,#29);
#31=IFCBUILDING('3xNTGT9pH6m8rR3ErKkgiy',#6,'',$,$,#30,$,'',.ELEMENT.,$,$,#28);
#32=IFCAXIS2PLACEMENT3D(#19,$,$);
#33=IFCLOCALPLACEMENT(#30,#32);
#34=IFCBUILDINGSTOREY('2JF4e6axWHqu3u0C1FZlmi',#6,'Level 1',$,$,#33,$,'Level 1',.ELEMENT.,0.);
#35=IFCCARTESIANPOINT((0.,0.,10.));
#36=IFCAXIS2PLACEMENT3D(#35,$,$);
#37=IFCLOCALPLACEMENT(#30,#36);
#38=IFCBUILDINGSTOREY('1ZGO8hrFCHqw0v0026FpFv',#6,'Level 2',$,$,#37,$,'Level 2',.ELEMENT.,9.999999999998435);
#39=IFCAXIS2PLACEMENT3D(#19,$,$);
#40=IFCLOCALPLACEMENT($,#39);
#41=IFCSITE('3xNTGT9pH6m8rR3ErKkgi$',#6,'Default',$,$,#40,$,$,.ELEMENT.,(42,21,32,376708),(-71,-3,-31,-74829),0.,$,$);
#42=IFCAXIS2PLACEMENT3D(#19,$,$);
#43=IFCLOCALPLACEMENT(#33,#42);
#44=IFCCARTESIANPOINT((0.,0.));
#45=IFCDIRECTION((1.,0.));
#46=IFCAXIS2PLACEMENT2D(#44,#45);
#47=IFCCIRCLEPROFILEDEF(.AREA.,'Rigid Nonmetallic Conduit (RNC Sch 40)',#46,0.098958333333333343);
#48=IFCCARTESIANPOINT((-69.573682199372101,5.9886583698534537,9.));
#49=IFCDIRECTION((1.,0.,0.));
#50=IFCDIRECTION((0.,-1.,0.));
#51=IFCAXIS2PLACEMENT3D(#48,#49,#50);
#52=IFCDIRECTION((0.,0.,1.));
#53=IFCEXTRUDEDAREASOLID(#47,#51,#52,94.942708333333371);
#54=IFCSIUNIT(*,.PLANEANGLEUNIT.,$,.RADIAN.);
#55=IFCDIMENSIONALEXPONENTS(0,0,0,0,0,0,0);
#56=IFCMEASUREWITHUNIT(IFCPLANEANGLEMEASURE(0.017453292519943278),#54);
#57=IFCCONVERSIONBASEDUNIT(#55,.PLANEANGLEUNIT.,'DEGREE',#56);
#58=IFCSHAPEREPRESENTATION(#24,'Body','SweptSolid',(#53));
#59=IFCPRODUCTDEFINITIONSHAPE($,$,(#58));
#60=IFCCABLECARRIERSEGMENTTYPE('2JVYEFXE9CV8Fkdb4IKM7t',#6,'Conduit without Fittings:Rigid Nonmetallic Conduit (RNC Sch 40)',$,$,$,$,'505167',$,.CONDUITSEGMENT.);
#61=IFCFLOWSEGMENT('32xvq5A2n68wmfrqZGZFST',#6,'Conduit without Fittings:Rigid Nonmetallic Conduit (RNC Sch 40):854413',$,$,#43,#59,'854413');
#62=IFCPROPERTYSINGLEVALUE('Reference',$,IFCIDENTIFIER('Rigid Nonmetallic Conduit (RNC Sch 40)'),$);
#63=IFCPROPERTYSET('3d78fQZHe7TxkUbdA4CIAo',#6,'Pset_DistributionFlowElementCommon',$,(#62));
#64=IFCPROPERTYSINGLEVALUE('Length',$,IFCPOSITIVELENGTHMEASURE(94.942708333333371),$);
#65=IFCPROPERTYSET('1__9g4FpKRn$y2WwIVBSk9',#6,'Pset_FlowSegmentDuctSegment',$,(#64));
#66=IFCPROPERTYSINGLEVALUE('Length',$,IFCPOSITIVELENGTHMEASURE(94.942708333333371),$);
#67=IFCPROPERTYSET('01wwHYi9eB87yKw0Y_YAsj',#6,'Pset_FlowSegmentPipeSegment',$,(#66));
#68=IFCPROPERTYSET('1mt0Rd0bPKjvoYK2c6Rv5k',#6,'Pset_QuantityTakeOff',$,(#62));
#69=IFCRELDEFINESBYPROPERTIES('0RPfjIgKLLAdXBRupXXuQe',#6,$,$,(#61),#63);
#70=IFCRELDEFINESBYPROPERTIES('1H3NAhB_uiaCF1z2zRJsMK',#6,$,$,(#61),#65);
#71=IFCRELDEFINESBYPROPERTIES('2jJV4Kk0aJ6L4OnBTava3b',#6,$,$,(#61),#67);
#72=IFCRELDEFINESBYPROPERTIES('3VsM0d0ZNODLttsxpkZOVQ',#6,$,$,(#61),#68);
#73=IFCAXIS2PLACEMENT3D(#19,$,$);
#74=IFCLOCALPLACEMENT(#33,#73);
#75=IFCCARTESIANPOINT((0.,0.));
#76=IFCAXIS2PLACEMENT2D(#75,#45);
#77=IFCCIRCLEPROFILEDEF(.AREA.,'Rigid Nonmetallic Conduit (RNC Sch 40)',#76,0.098958333333333343);
#78=IFCCARTESIANPOINT((26.426317800627931,7.0459500365197982,9.));
#79=IFCDIRECTION((0.,1.,0.));
#80=IFCAXIS2PLACEMENT3D(#78,#79,#49);
#81=IFCEXTRUDEDAREASOLID(#77,#80,#52,33.885416666666686);
#82=IFCSHAPEREPRESENTATION(#24,'Body','SweptSolid',(#81));
#83=IFCPRODUCTDEFINITIONSHAPE($,$,(#82));
#84=IFCFLOWSEGMENT('32xvq5A2n68wmfrqZGZFS8',#6,'Conduit without Fittings:Rigid Nonmetallic Conduit (RNC Sch 40):854424',$,$,#74,#83,'854424');
#85=IFCPROPERTYSET('1yfg2aRY1Q0A0OfO_4aVD_',#6,'Pset_DistributionFlowElementCommon',$,(#62));
#86=IFCPROPERTYSINGLEVALUE('Length',$,IFCPOSITIVELENGTHMEASURE(33.885416666666686),$);
#87=IFCPROPERTYSET('3svxen5O$iycD9PRbCZLYh',#6,'Pset_FlowSegmentDuctSegment',$,(#86));
#88=IFCPROPERTYSINGLEVALUE('Length',$,IFCPOSITIVELENGTHMEASURE(33.885416666666686),$);
#89=IFCPROPERTYSET('2JE3uAUjWLBXrnUbFsVUYY',#6,'Pset_FlowSegmentPipeSegment',$,(#88));
#90=IFCPROPERTYSET('1uNV4PnvsQWALMlNYgYVMc',#6,'Pset_QuantityTakeOff',$,(#62));
#91=IFCRELDEFINESBYPROPERTIES('3EdesyVvEo0itlXMpfmKmW',#6,$,$,(#84),#85);
#92=IFCRELDEFINESBYPROPERTIES('0nQfEVES1wGpERLHUZgr4z',#6,$,$,(#84),#87);
#93=IFCRELDEFINESBYPROPERTIES('2qjah7S2CF2MdAKM_FSYfR',#6,$,$,(#84),#89);
#94=IFCRELDEFINESBYPROPERTIES('2soBV44BtyZffnzGPqcrcU',#6,$,$,(#84),#90);
#95=IFCAXIS2PLACEMENT3D(#19,$,$);
#96=IFCLOCALPLACEMENT(#33,#95);
#97=IFCCARTESIANPOINT((0.,0.));
#98=IFCAXIS2PLACEMENT2D(#97,#45);
#99=IFCCIRCLEPROFILEDEF(.AREA.,'Rigid Nonmetallic Conduit (RNC Sch 40)',#98,0.098958333333333343);
#100=IFCCARTESIANPOINT((27.483609467294475,41.988658369853169,9.));
#101=IFCAXIS2PLACEMENT3D(#100,#49,#50);
#102=IFCEXTRUDEDAREASOLID(#99,#101,#52,54.942708333333357);
#103=IFCSHAPEREPRESENTATION(#24,'Body','SweptSolid',(#102));
#104=IFCPRODUCTDEFINITIONSHAPE($,$,(#103));
#105=IFCFLOWSEGMENT('32xvq5A2n68wmfrqZGZFSF',#6,'Conduit without Fittings:Rigid Nonmetallic Conduit (RNC Sch 40):854431',$,$,#96,#104,'854431');
#106=IFCPROPERTYSET('1en5aIVhXj58U$pjL5NfcM',#6,'Pset_DistributionFlowElementCommon',$,(#62));
#107=IFCPROPERTYSINGLEVALUE('Length',$,IFCPOSITIVELENGTHMEASURE(54.942708333333357),$);
#108=IFCPROPERTYSET('2GSlSxti7_Bbsi8VNBoY1L',#6,'Pset_FlowSegmentDuctSegment',$,(#107));
#109=IFCPROPERTYSINGLEVALUE('Length',$,IFCPOSITIVELENGTHMEASURE(54.942708333333357),$);
#110=IFCPROPERTYSET('1EtR_51f9EtJNwy6sZ2X1i',#6,'Pset_FlowSegmentPipeSegment',$,(#109));
#111=IFCPROPERTYSET('3hKZG0KSjyz538B8j05f4E',#6,'Pset_QuantityTakeOff',$,(#62));
#112=IFCRELDEFINESBYPROPERTIES('2Wjhex5SSO4QFr1mq3p6dm',#6,$,$,(#105),#106);
#113=IFCRELDEFINESBYPROPERTIES('1ivVcldkHHglcKy9Yaetef',#6,$,$,(#105),#108);
#114=IFCRELDEFINESBYPROPERTIES('23CoTxamdQkLr08E8VlhOF',#6,$,$,(#105),#110);
#115=IFCRELDEFINESBYPROPERTIES('2cLQ4FLmJ_8FG6HmsrMAj$',#6,$,$,(#105),#111);
#116=IFCCARTESIANPOINT((-1.0572916666666272,-0.098958333333360987,-0.));
#117=IFCCARTESIANPOINT((-1.0572916666666283,-0.085700430582863252,0.049479166666659642));
#118=IFCCARTESIANPOINT((-1.0572916666666343,-0.025612301338298938,0.09558640989318265));
#119=IFCCARTESIANPOINT((-1.0572916666666392,0.025612301338241574,0.095586409893183219));
#120=IFCCARTESIANPOINT((-1.0572916666666452,0.085700430582806839,0.049479166666661578));
#121=IFCCARTESIANPOINT((-1.0572916666666463,0.098958333333305698,-0.));
#122=IFCCARTESIANPOINT((-1.0572916666666452,0.085700430582807463,-0.049479166666672757));
#123=IFCCARTESIANPOINT((-1.0572916666666392,0.025612301338242764,-0.095586409893195168));
#124=IFCCARTESIANPOINT((-1.0572916666666343,-0.025612301338297769,-0.095586409893195237));
#125=IFCCARTESIANPOINT((-1.0572916666666283,-0.0857004305828626,-0.04947916666667302));
#126=IFCCARTESIANPOINT((-0.89062499999984202,-0.098958333333344778,-0.));
#127=IFCCARTESIANPOINT((-0.89062499999984368,-0.085700430582847043,0.049479166666659642));
#128=IFCCARTESIANPOINT((-0.89062499999985145,-0.025612301338282812,0.095586409893182636));
#129=IFCCARTESIANPOINT((-0.89062499999985811,0.025612301338257783,0.095586409893183219));
#130=IFCCARTESIANPOINT((-0.89062499999986589,0.085700430582823006,0.049479166666661654));
#131=IFCCARTESIANPOINT((-0.89062499999986444,0.098958333333321907,-0.));
#132=IFCCARTESIANPOINT((-0.89062499999986589,0.085700430582823686,-0.049479166666672736));
#133=IFCCARTESIANPOINT((-0.89062499999985811,0.025612301338258973,-0.095586409893195168));
#134=IFCCARTESIANPOINT((-0.89062499999985145,-0.025612301338281514,-0.095586409893195251));
#135=IFCCARTESIANPOINT((-0.89062499999984368,-0.08570043058284639,-0.04947916666667302));
#136=IFCCARTESIANPOINT((-0.098958333333303172,0.89062499999998745,-0.));
#137=IFCCARTESIANPOINT((-0.17735797957720911,0.54713370653194726,-0.));
#138=IFCCARTESIANPOINT((-0.54713370653183757,0.17735797957727173,-0.));
#139=IFCCARTESIANPOINT((-0.34084195690758912,0.067816529492305544,-0.));
#140=IFCCARTESIANPOINT((0.023630787381002882,0.51192785338873026,-0.));
#141=IFCCARTESIANPOINT((0.098958333333363568,0.89062499999998757,-0.));
#142=IFCCARTESIANPOINT((0.085700430582866138,0.89062499999998734,0.049479166666659073));
#143=IFCCARTESIANPOINT((0.025612301338302168,0.89062499999998768,0.09558640989318247));
#144=IFCCARTESIANPOINT((-0.02561230133823833,0.89062499999998757,0.095586409893183386));
#145=IFCCARTESIANPOINT((-0.085700430582803966,0.89062499999998779,0.049479166666662112));
#146=IFCCARTESIANPOINT((-0.25780579534439285,0.25780579529430414,0.098864146931084737));
#147=IFCCARTESIANPOINT((-0.3152094964944071,0.31520949647436369,0.062326450223834526));
#148=IFCCARTESIANPOINT((-0.28508603482819361,0.14299692110489159,0.068446403580303725));
#149=IFCCARTESIANPOINT((-0.085700430582804854,0.89062499999998779,-0.049479166666672784));
#150=IFCCARTESIANPOINT((-0.025612301338240218,0.89062499999998757,-0.095586409893195168));
#151=IFCCARTESIANPOINT((0.025612301338300392,0.89062499999998768,-0.095586409893195223));
#152=IFCCARTESIANPOINT((0.085700430582865139,0.89062499999998734,-0.04947916666667302));
#153=IFCCARTESIANPOINT((-0.25780579518893032,0.25780579480925114,-0.098864146911322406));
#154=IFCCARTESIANPOINT((-0.31520949679538635,0.31520949488730732,-0.062326451345363826));
#155=IFCCARTESIANPOINT((-0.28508603579715097,0.14299692013204179,-0.06844640342773517));
#156=IFCCARTESIANPOINT((0.098958333333363596,1.0572916666666541,-0.));
#157=IFCCARTESIANPOINT((0.085700430582865209,1.0572916666666541,-0.04947916666667302));
#158=IFCCARTESIANPOINT((0.025612301338300378,1.0572916666666541,-0.095586409893195237));
#159=IFCCARTESIANPOINT((-0.025612301338240155,1.0572916666666541,-0.095586409893195168));
#160=IFCCARTESIANPOINT((-0.085700430582804854,1.0572916666666541,-0.049479166666672757));
#161=IFCCARTESIANPOINT((-0.098958333333303089,1.0572916666666541,-0.));
#162=IFCCARTESIANPOINT((-0.08570043058280423,1.0572916666666541,0.049479166666661578));
#163=IFCCARTESIANPOINT((-0.025612301338238965,1.0572916666666541,0.095586409893183219));
#164=IFCCARTESIANPOINT((0.025612301338301547,1.0572916666666541,0.09558640989318265));
#165=IFCCARTESIANPOINT((0.085700430582865861,1.0572916666666541,0.049479166666659642));
#166=IFCPOLYLOOP((#124,#125,#116,#117,#118,#119,#120,#121,#122,#123));
#167=IFCFACEOUTERBOUND(#166,.T.);
#168=IFCFACE((#167));
#169=IFCPOLYLOOP((#116,#126,#127,#117));
#170=IFCFACEOUTERBOUND(#169,.T.);
#171=IFCFACE((#170));
#172=IFCPOLYLOOP((#117,#127,#128,#118));
#173=IFCFACEOUTERBOUND(#172,.T.);
#174=IFCFACE((#173));
#175=IFCPOLYLOOP((#128,#129,#119,#118));
#176=IFCFACEOUTERBOUND(#175,.T.);
#177=IFCFACE((#176));
#178=IFCPOLYLOOP((#164,#163,#144,#143));
#179=IFCFACEOUTERBOUND(#178,.T.);
#180=IFCFACE((#179));
#181=IFCPOLYLOOP((#119,#129,#130,#120));
#182=IFCFACEOUTERBOUND(#181,.T.);
#183=IFCFACE((#182));
#184=IFCPOLYLOOP((#120,#130,#131,#121));
#185=IFCFACEOUTERBOUND(#184,.T.);
#186=IFCFACE((#185));
#187=IFCPOLYLOOP((#121,#131,#132,#122));
#188=IFCFACEOUTERBOUND(#187,.T.);
#189=IFCFACE((#188));
#190=IFCPOLYLOOP((#122,#132,#133,#123));
#191=IFCFACEOUTERBOUND(#190,.T.);
#192=IFCFACE((#191));
#193=IFCPOLYLOOP((#133,#134,#124,#123));
#194=IFCFACEOUTERBOUND(#193,.T.);
#195=IFCFACE((#194));
#196=IFCPOLYLOOP((#159,#158,#151,#150));
#197=IFCFACEOUTERBOUND(#196,.T.);
#198=IFCFACE((#197));
#199=IFCPOLYLOOP((#124,#134,#135,#125));
#200=IFCFACEOUTERBOUND(#199,.T.);
#201=IFCFACE((#200));
#202=IFCPOLYLOOP((#125,#135,#126,#116));
#203=IFCFACEOUTERBOUND(#202,.T.);
#204=IFCFACE((#203));
#205=IFCPOLYLOOP((#129,#147,#130));
#206=IFCFACEOUTERBOUND(#205,.T.);
#207=IFCFACE((#206));
#208=IFCPOLYLOOP((#127,#126,#139));
#209=IFCFACEOUTERBOUND(#208,.T.);
#210=IFCFACE((#209));
#211=IFCPOLYLOOP((#128,#146,#129));
#212=IFCFACEOUTERBOUND(#211,.T.);
#213=IFCFACE((#212));
#214=IFCPOLYLOOP((#148,#127,#139));
#215=IFCFACEOUTERBOUND(#214,.T.);
#216=IFCFACE((#215));
#217=IFCPOLYLOOP((#144,#147,#146));
#218=IFCFACEOUTERBOUND(#217,.T.);
#219=IFCFACE((#218));
#220=IFCPOLYLOOP((#128,#148,#146));
#221=IFCFACEOUTERBOUND(#220,.T.);
#222=IFCFACE((#221));
#223=IFCPOLYLOOP((#130,#147,#138));
#224=IFCFACEOUTERBOUND(#223,.T.);
#225=IFCFACE((#224));
#226=IFCPOLYLOOP((#143,#144,#146));
#227=IFCFACEOUTERBOUND(#226,.T.);
#228=IFCFACE((#227));
#229=IFCPOLYLOOP((#138,#131,#130));
#230=IFCFACEOUTERBOUND(#229,.T.);
#231=IFCFACE((#230));
#232=IFCPOLYLOOP((#129,#146,#147));
#233=IFCFACEOUTERBOUND(#232,.T.);
#234=IFCFACE((#233));
#235=IFCPOLYLOOP((#143,#148,#142));
#236=IFCFACEOUTERBOUND(#235,.T.);
#237=IFCFACE((#236));
#238=IFCPOLYLOOP((#148,#139,#140));
#239=IFCFACEOUTERBOUND(#238,.T.);
#240=IFCFACE((#239));
#241=IFCPOLYLOOP((#147,#144,#145));
#242=IFCFACEOUTERBOUND(#241,.T.);
#243=IFCFACE((#242));
#244=IFCPOLYLOOP((#143,#146,#148));
#245=IFCFACEOUTERBOUND(#244,.T.);
#246=IFCFACE((#245));
#247=IFCPOLYLOOP((#141,#142,#140));
#248=IFCFACEOUTERBOUND(#247,.T.);
#249=IFCFACE((#248));
#250=IFCPOLYLOOP((#128,#127,#148));
#251=IFCFACEOUTERBOUND(#250,.T.);
#252=IFCFACE((#251));
#253=IFCPOLYLOOP((#136,#137,#145));
#254=IFCFACEOUTERBOUND(#253,.T.);
#255=IFCFACE((#254));
#256=IFCPOLYLOOP((#138,#147,#137));
#257=IFCFACEOUTERBOUND(#256,.T.);
#258=IFCFACE((#257));
#259=IFCPOLYLOOP((#147,#145,#137));
#260=IFCFACEOUTERBOUND(#259,.T.);
#261=IFCFACE((#260));
#262=IFCPOLYLOOP((#142,#148,#140));
#263=IFCFACEOUTERBOUND(#262,.T.);
#264=IFCFACE((#263));
#265=IFCPOLYLOOP((#154,#132,#138));
#266=IFCFACEOUTERBOUND(#265,.T.);
#267=IFCFACE((#266));
#268=IFCPOLYLOOP((#155,#153,#151));
#269=IFCFACEOUTERBOUND(#268,.T.);
#270=IFCFACE((#269));
#271=IFCPOLYLOOP((#131,#138,#132));
#272=IFCFACEOUTERBOUND(#271,.T.);
#273=IFCFACE((#272));
#274=IFCPOLYLOOP((#134,#155,#135));
#275=IFCFACEOUTERBOUND(#274,.T.);
#276=IFCFACE((#275));
#277=IFCPOLYLOOP((#153,#134,#133));
#278=IFCFACEOUTERBOUND(#277,.T.);
#279=IFCFACE((#278));
#280=IFCPOLYLOOP((#126,#135,#139));
#281=IFCFACEOUTERBOUND(#280,.T.);
#282=IFCFACE((#281));
#283=IFCPOLYLOOP((#155,#134,#153));
#284=IFCFACEOUTERBOUND(#283,.T.);
#285=IFCFACE((#284));
#286=IFCPOLYLOOP((#135,#155,#139));
#287=IFCFACEOUTERBOUND(#286,.T.);
#288=IFCFACE((#287));
#289=IFCPOLYLOOP((#150,#154,#149));
#290=IFCFACEOUTERBOUND(#289,.T.);
#291=IFCFACE((#290));
#292=IFCPOLYLOOP((#154,#138,#137));
#293=IFCFACEOUTERBOUND(#292,.T.);
#294=IFCFACE((#293));
#295=IFCPOLYLOOP((#137,#136,#149));
#296=IFCFACEOUTERBOUND(#295,.T.);
#297=IFCFACE((#296));
#298=IFCPOLYLOOP((#151,#152,#155));
#299=IFCFACEOUTERBOUND(#298,.T.);
#300=IFCFACE((#299));
#301=IFCPOLYLOOP((#154,#150,#153));
#302=IFCFACEOUTERBOUND(#301,.T.);
#303=IFCFACE((#302));
#304=IFCPOLYLOOP((#133,#154,#153));
#305=IFCFACEOUTERBOUND(#304,.T.);
#306=IFCFACE((#305));
#307=IFCPOLYLOOP((#153,#150,#151));
#308=IFCFACEOUTERBOUND(#307,.T.);
#309=IFCFACE((#308));
#310=IFCPOLYLOOP((#155,#140,#139));
#311=IFCFACEOUTERBOUND(#310,.T.);
#312=IFCFACE((#311));
#313=IFCPOLYLOOP((#140,#155,#152));
#314=IFCFACEOUTERBOUND(#313,.T.);
#315=IFCFACE((#314));
#316=IFCPOLYLOOP((#152,#141,#140));
#317=IFCFACEOUTERBOUND(#316,.T.);
#318=IFCFACE((#317));
#319=IFCPOLYLOOP((#133,#132,#154));
#320=IFCFACEOUTERBOUND(#319,.T.);
#321=IFCFACE((#320));
#322=IFCPOLYLOOP((#137,#149,#154));
#323=IFCFACEOUTERBOUND(#322,.T.);
#324=IFCFACE((#323));
#325=IFCPOLYLOOP((#159,#160,#161,#162,#163,#164,#165,#156,#157,#158));
#326=IFCFACEOUTERBOUND(#325,.T.);
#327=IFCFACE((#326));
#328=IFCPOLYLOOP((#141,#156,#165,#142));
#329=IFCFACEOUTERBOUND(#328,.T.);
#330=IFCFACE((#329));
#331=IFCPOLYLOOP((#142,#165,#164,#143));
#332=IFCFACEOUTERBOUND(#331,.T.);
#333=IFCFACE((#332));
#334=IFCPOLYLOOP((#144,#163,#162,#145));
#335=IFCFACEOUTERBOUND(#334,.T.);
#336=IFCFACE((#335));
#337=IFCPOLYLOOP((#145,#162,#161,#136));
#338=IFCFACEOUTERBOUND(#337,.T.);
#339=IFCFACE((#338));
#340=IFCPOLYLOOP((#136,#161,#160,#149));
#341=IFCFACEOUTERBOUND(#340,.T.);
#342=IFCFACE((#341));
#343=IFCPOLYLOOP((#149,#160,#159,#150));
#344=IFCFACEOUTERBOUND(#343,.T.);
#345=IFCFACE((#344));
#346=IFCPOLYLOOP((#151,#158,#157,#152));
#347=IFCFACEOUTERBOUND(#346,.T.);
#348=IFCFACE((#347));
#349=IFCPOLYLOOP((#152,#157,#156,#141));
#350=IFCFACEOUTERBOUND(#349,.T.);
#351=IFCFACE((#350));
#352=IFCCLOSEDSHELL((#168,#171,#174,#177,#180,#183,#186,#189,#192,#195,#198,#201,#204,#207,#210,#213,#216,#219,#222,#225,#228,#231,#234,#237,#240,#243,#246,#249,#252,#255,#258,#261,#264,#267,#270,#273,#276,#279,#282,#285,#288,#291,#294,#297,#300,#303,#306,#309,#312,#315,#318,#321,#324,#327,#330,#333,#336,#339,#342,#345,#348,#351));
#353=IFCFACETEDBREP(#352);
#354=IFCSHAPEREPRESENTATION(#24,'Body','Brep',(#353));
#355=IFCAXIS2PLACEMENT3D(#19,$,$);
#356=IFCREPRESENTATIONMAP(#355,#354);
#357=IFCCABLECARRIERFITTINGTYPE('32xvq5A2n68wmfrqZGZFSp',#6,'Conduit Elbow - without Fittings - RNC:Standard',$,$,$,(#356),'500408',$,.NOTDEFINED.);
#358=IFCMATERIAL('<Unnamed>');
#359=IFCCARTESIANTRANSFORMATIONOPERATOR3D($,$,#19,1.,$);
#360=IFCMAPPEDITEM(#356,#359);
#361=IFCSHAPEREPRESENTATION(#24,'Body','MappedRepresentation',(#360));
#362=IFCPRODUCTDEFINITIONSHAPE($,$,(#361));
#363=IFCCARTESIANPOINT((26.426317800627878,5.9886583698531712,9.));
#364=IFCAXIS2PLACEMENT3D(#363,$,$);
#365=IFCLOCALPLACEMENT(#33,#364);
#366=IFCFLOWFITTING('32xvq5A2n68wmfrqZGZFSn',#6,'Conduit Elbow - without Fittings - RNC:Standard:854433',$,$,#365,#362,'854433');
#367=IFCPROPERTYSINGLEVALUE('Reference',$,IFCIDENTIFIER('Standard'),$);
#368=IFCPROPERTYSET('09NK6RZIBG9bJK8EpvsKYr',#6,'Pset_DistributionFlowElementCommon',$,(#367));
#369=IFCPROPERTYSET('1$O3RnpdhiXtp9HIQiwE0L',#6,'Pset_QuantityTakeOff',$,(#367));
#370=IFCRELDEFINESBYPROPERTIES('0e7ho_VQwfU5554_DCopGt',#6,$,$,(#366),#368);
#371=IFCRELDEFINESBYPROPERTIES('0EJPPX9x14Lj5Cx4iEDxcq',#6,$,$,(#366),#369);
#372=IFCMAPPEDITEM(#356,#359);
#373=IFCSHAPEREPRESENTATION(#24,'Body','MappedRepresentation',(#372));
#374=IFCPRODUCTDEFINITIONSHAPE($,$,(#373));
#375=IFCCARTESIANPOINT((26.42631780062786,41.988658369853113,9.));
#376=IFCDIRECTION((-1.,0.,0.));
#377=IFCAXIS2PLACEMENT3D(#375,#52,#376);
#378=IFCLOCALPLACEMENT(#33,#377);
#379=IFCFLOWFITTING('32xvq5A2n68wmfrqZGZFSx',#6,'Conduit Elbow - without Fittings - RNC:Standard:854443',$,$,#378,#374,'854443');
#380=IFCPROPERTYSET('3TZJSY0BThetAzatJCmcXM',#6,'Pset_DistributionFlowElementCommon',$,(#367));
#381=IFCPROPERTYSET('0uj4_XjXCG3ZDAhK$mVnhg',#6,'Pset_QuantityTakeOff',$,(#367));
#382=IFCRELDEFINESBYPROPERTIES('1MMd6W7QW25r73p5501aGZ',#6,$,$,(#379),#380);
#383=IFCRELDEFINESBYPROPERTIES('1hthI8tBZxkvKSq43bwEJF',#6,$,$,(#379),#381);
#384=IFCCARTESIANPOINT((-69.573682199372101,5.9886583698534537,9.));
#385=IFCAXIS2PLACEMENT3D(#384,#376,#79);
#386=IFCLOCALPLACEMENT(#43,#385);
#387=IFCDISTRIBUTIONPORT('0BtA2MLymfG1dSaFBEEbUc',#6,'Port_854413_0','Flow',$,#386,$,.SOURCEANDSINK.);
#388=IFCRELCONNECTSPORTTOELEMENT('0PRA$U4_KIwaZnUWXwJv$3',#6,'854413|0BtA2MLymfG1dSaFBEEbUc','Flow',#387,#61);
#389=IFCCARTESIANPOINT((25.36902613396127,5.9886583698531162,9.));
#390=IFCAXIS2PLACEMENT3D(#389,#49,#50);
#391=IFCLOCALPLACEMENT(#43,#390);
#392=IFCDISTRIBUTIONPORT('3hvdojReTI3XkWdrruCVbc',#6,'Port_854413_1','Flow',$,#391,$,.SOURCEANDSINK.);
#393=IFCRELCONNECTSPORTTOELEMENT('1VjoRuzXmz_8ebuf56EvSZ',#6,'854413|1VjoRuzXmz_8ebuf56EvSZ','Flow',#392,#61);
#394=IFCCARTESIANPOINT((-1.0572916666666146,-0.,-0.));
#395=IFCAXIS2PLACEMENT3D(#394,#376,#50);
#396=IFCLOCALPLACEMENT(#365,#395);
#397=IFCDISTRIBUTIONPORT('1iWvE$uAmMC2zG5mx_xALE',#6,'Port_854433_1','Flow',$,#396,$,.SOURCEANDSINK.);
#398=IFCRELCONNECTSPORTTOELEMENT('16iPAJHQRbkJDt95aTPFLJ',#6,'854433|16iPAJHQRbkJDt95aTPFLJ','Flow',#397,#366);
#399=IFCRELCONNECTSPORTS('0cwHDAMQTmm8cD9pAyAX5_',#6,'3hvdojReTI3XkWdrruCVbc|1iWvE$uAmMC2zG5mx_xALE','Flow',#392,#397,$);
#400=IFCCARTESIANPOINT((26.426317800627931,7.0459500365197982,9.));
#401=IFCAXIS2PLACEMENT3D(#400,#50,#376);
#402=IFCLOCALPLACEMENT(#74,#401);
#403=IFCDISTRIBUTIONPORT('3_IelmdKdrt4jfGkqx18Tv',#6,'Port_854424_0','Flow',$,#402,$,.SOURCEANDSINK.);
#404=IFCRELCONNECTSPORTTOELEMENT('00B0BaE9DZnHYZBGdlWoH8',#6,'854424|00B0BaE9DZnHYZBGdlWoH8','Flow',#403,#84);
#405=IFCCARTESIANPOINT((0.,1.057291666666627,-0.));
#406=IFCAXIS2PLACEMENT3D(#405,#79,#376);
#407=IFCLOCALPLACEMENT(#365,#406);
#408=IFCDISTRIBUTIONPORT('0oL34MyvIOTaHlXuPh9opK',#6,'Port_854433_2','Flow',$,#407,$,.SOURCEANDSINK.);
#409=IFCRELCONNECTSPORTTOELEMENT('19DRpTQX_wxtxLB$CUTdSz',#6,'854433|19DRpTQX_wxtxLB$CUTdSz','Flow',#408,#366);
#410=IFCRELCONNECTSPORTS('1MEmcxGwwsRX6UhU7qB9MB',#6,'3_IelmdKdrt4jfGkqx18Tv|0oL34MyvIOTaHlXuPh9opK','Flow',#403,#408,$);
#411=IFCCARTESIANPOINT((26.426317800627807,40.931366703186484,9.));
#412=IFCAXIS2PLACEMENT3D(#411,#79,#49);
#413=IFCLOCALPLACEMENT(#74,#412);
#414=IFCDISTRIBUTIONPORT('28D88QDHlo0ZJcvHSyNx83',#6,'Port_854424_1','Flow',$,#413,$,.SOURCEANDSINK.);
#415=IFCRELCONNECTSPORTTOELEMENT('23EFM50kYBQb3PM7D$DHkF',#6,'854424|23EFM50kYBQb3PM7D$DHkF','Flow',#414,#84);
#416=IFCCARTESIANPOINT((0.,1.0572916666666288,-0.));
#417=IFCAXIS2PLACEMENT3D(#416,#79,#376);
#418=IFCLOCALPLACEMENT(#378,#417);
#419=IFCDISTRIBUTIONPORT('1XDc_6l4lCpEHimccxY9I8',#6,'Port_854443_2','Flow',$,#418,$,.SOURCEANDSINK.);
#420=IFCRELCONNECTSPORTTOELEMENT('09K4qT3AW$zrbVraV7Yue$',#6,'854443|09K4qT3AW$zrbVraV7Yue$','Flow',#419,#379);
#421=IFCRELCONNECTSPORTS('0EbFLeDzIyvMBYozz2CR7I',#6,'28D88QDHlo0ZJcvHSyNx83|1XDc_6l4lCpEHimccxY9I8','Flow',#414,#419,$);
#422=IFCCARTESIANPOINT((27.483609467294475,41.988658369853169,9.));
#423=IFCAXIS2PLACEMENT3D(#422,#376,#79);
#424=IFCLOCALPLACEMENT(#96,#423);
#425=IFCDISTRIBUTIONPORT('2tmKJJ1ZGfaRtFR48xgKuP',#6,'Port_854431_0','Flow',$,#424,$,.SOURCEANDSINK.);
#426=IFCRELCONNECTSPORTTOELEMENT('1hibXISQzgl3iQ5p7Gv3Id',#6,'854431|1hibXISQzgl3iQ5p7Gv3Id','Flow',#425,#105);
#427=IFCCARTESIANPOINT((-1.0572916666666146,-0.,-0.));
#428=IFCAXIS2PLACEMENT3D(#427,#376,#50);
#429=IFCLOCALPLACEMENT(#378,#428);
#430=IFCDISTRIBUTIONPORT('3yPoC9inA3aFPYG$Drxziv',#6,'Port_854443_1','Flow',$,#429,$,.SOURCEANDSINK.);
#431=IFCRELCONNECTSPORTTOELEMENT('0EYzOfdG3FJ5PXtHH5DpEn',#6,'854443|0EYzOfdG3FJ5PXtHH5DpEn','Flow',#430,#379);
#432=IFCRELCONNECTSPORTS('3HJ0IubYUaiOkw4dzvM57n',#6,'2tmKJJ1ZGfaRtFR48xgKuP|3yPoC9inA3aFPYG$Drxziv','Flow',#425,#430,$);
#433=IFCCARTESIANPOINT((82.426317800627828,41.988658369853226,9.));
#434=IFCAXIS2PLACEMENT3D(#433,#49,#50);
#435=IFCLOCALPLACEMENT(#96,#434);
#436=IFCDISTRIBUTIONPORT('0AEQRL9VUeijsftHNo_7sx',#6,'Port_854431_1','Flow',$,#435,$,.SOURCEANDSINK.);
#437=IFCRELCONNECTSPORTTOELEMENT('3OXph9bAxf22fFPMqtz5ro',#6,'854431|0AEQRL9VUeijsftHNo_7sx','Flow',#436,#105);
#438=IFCPROPERTYSINGLEVALUE('Name',$,IFCLABEL('Level 1'),$);
#439=IFCPROPERTYSET('2l4vqu11LCaZAypUbzwyea',#6,'Pset_AirSideSystemInformation',$,(#438));
#440=IFCPROPERTYSINGLEVALUE('AboveGround',$,IFCLOGICAL(.U.),$);
#441=IFCPROPERTYSET('16L50AfyZF4hYq5TGET4H4',#6,'Pset_BuildingStoreyCommon',$,(#440));
#442=IFCPROPERTYSINGLEVALUE('Name',$,IFCLABEL('Level 1'),$);
#443=IFCPROPERTYSET('0Fxv$pCHYe$d1NPq668uup',#6,'Pset_ProductRequirements',$,(#442));
#444=IFCRELDEFINESBYPROPERTIES('3NFes7CBV81H0RHVpWu5ZF',#6,$,$,(#34),#439);
#445=IFCRELDEFINESBYPROPERTIES('2VdfSfkgzGoZi_3SgzE8$0',#6,$,$,(#34),#441);
#446=IFCRELDEFINESBYPROPERTIES('0Vxl9G1EBUZpUdM$cyum7J',#6,$,$,(#34),#443);
#447=IFCRELCONTAINEDINSPATIALSTRUCTURE('2JF4e6axWHqu3u0C5FZlmi',#6,$,$,(#61,#84,#105,#366,#379),#34);
#448=IFCPROPERTYSINGLEVALUE('Name',$,IFCLABEL('Level 2'),$);
#449=IFCPROPERTYSET('2rmMSkA7gc4STb1LnLF8UH',#6,'Pset_AirSideSystemInformation',$,(#448));
#450=IFCPROPERTYSET('1n34enW33Z_3Qq2Pm1kjQZ',#6,'Pset_BuildingStoreyCommon',$,(#440));
#451=IFCPROPERTYSINGLEVALUE('Name',$,IFCLABEL('Level 2'),$);
#452=IFCPROPERTYSET('3b2aIDv9vaOvbWU0hVWzaG',#6,'Pset_ProductRequirements',$,(#451));
#453=IFCRELDEFINESBYPROPERTIES('1kaSOYlg8iono8iflzrHRz',#6,$,$,(#38),#449);
#454=IFCRELDEFINESBYPROPERTIES('36oM8gyLQ5_Z6XoGK5uP1E',#6,$,$,(#38),#450);
#455=IFCRELDEFINESBYPROPERTIES('2r$5AllCk4VpjESRla$JzH',#6,$,$,(#38),#452);
#456=IFCRELAGGREGATES('3zx5o3x2QNZQ8o6UJYuM0x',#6,$,$,#27,(#41));
#457=IFCRELAGGREGATES('2Jy9Ppi0llbDpFcSslUQ5_',#6,$,$,#41,(#31));
#458=IFCRELAGGREGATES('1yhDISh1T5aQqAoygxGIhP',#6,$,$,#31,(#34,#38));
#459=IFCPROPERTYSINGLEVALUE('NumberOfStoreys',$,IFCINTEGER(2),$);
#460=IFCPROPERTYSINGLEVALUE('IsLandmarked',$,IFCLOGICAL(.U.),$);
#461=IFCPROPERTYSET('2vemDLwwkHYRTRzBuULXjj',#6,'Pset_BuildingCommon',$,(#459,#460));
#462=IFCRELDEFINESBYPROPERTIES('3yjJmaETxCxo2KUcKzrpsg',#6,$,$,(#31),#461);
#463=IFCRELASSOCIATESMATERIAL('1ywHhvyqOJiYheOP2ICsxw',#6,$,$,(#357,#366,#379),#358);
#464=IFCRELDEFINESBYTYPE('3Go5W9WlcGCbw_KkOizV2P',#6,$,$,(#61,#84,#105),#60);
#465=IFCRELDEFINESBYTYPE('3W$sKjuAsSxe0oZCOnWjQ4',#6,$,$,(#366,#379),#357);
#466=IFCPRESENTATIONLAYERASSIGNMENT('E-POWR-CNDT',$,(#58,#82,#103,#354,#361,#373),$);
#467=IFCUNITASSIGNMENT((#10,#14,#18,#57));
ENDSEC;

END-ISO-10303-21;